#N canvas 0 0 1440 872 12;
#X obj 166 234 delread4~ phaseMod_\$0;
#X obj 166 257 outlet~;
#X obj 166 165 r~ mod_\$0;
#X obj 166 119 r~ in_\$0;
#X obj 166 22 inlet~;
#X obj 166 45 s~ in_\$0;
#X obj 276 22 inlet~;
#X obj 276 45 s~ mod_\$0;
#X obj 166 211 +~ 5;
#X obj 166 142 delwrite~ phaseMod_\$0 10000;
#X obj 374 22 inlet~;
#X obj 374 45 s~ quant_\$0;
#X obj 366 165 r~ quant_\$0;
#X obj 509 4 loadbang;
#X msg 509 27 1;
#X obj 166 188 expr~ (($v1 / 2) + 0.5) * $v2;
#X connect 0 0 1 0;
#X connect 2 0 15 0;
#X connect 3 0 9 0;
#X connect 4 0 5 0;
#X connect 6 0 7 0;
#X connect 8 0 0 0;
#X connect 10 0 11 0;
#X connect 12 0 15 1;
#X connect 13 0 14 0;
#X connect 14 0 11 0;
#X connect 15 0 8 0;
