#N canvas 0 25 1440 795 12;
#X obj 65 451 expr~ $v1 * (1 - $v2) \; $v1 * $v2;
#X obj 65 61 osc~;
#X obj 65 107 *~ 1;
#X obj 65 -217 expr~ ($v1 + 1) / 2;
#X obj 167 38 osc~;
#X obj 167 107 *~ 1;
#X obj 65 428 *~ 0.05;
#X obj 167 61 expr~ ($v1 + 1) / 2;
#X obj 65 153 expr~ $v1 \; $v1 * $v2, f 15;
#X obj 65 189 expr~ $v1 * (1 - $v3) \; $v2 * $v3, f 23;
#X obj 65 225 +~, f 23;
#X obj 65 -123 *~;
#X floatatom 1274 -874 5 0 0 0 - - - 0;
#X obj 135 -580 random 100;
#X obj 135 -556 / 100;
#X obj 135 -532 s posicao_\$0;
#X obj 216 428 r posicao_\$0;
#X obj 655 -580 random 8;
#X obj 655 -556 + 1;
#X obj 745 -580 random 8;
#X obj 745 -556 + 1;
#X obj 835 -580 random 8;
#X obj 835 -556 + 1;
#X obj 925 -580 random 8;
#X obj 925 -556 + 1;
#X obj 377 -580 random 4;
#X obj 377 -555 sel 0;
#X obj 377 -530 random 100;
#X obj 377 -505 / 200;
#X obj 377 -480 s fold1_\$0;
#X obj 477 -555 sel 0;
#X obj 477 -530 random 100;
#X obj 477 -580 random 2;
#X obj 477 -480 s fold2_\$0;
#X obj 477 -505 / 20;
#X obj 192 84 r fold2_\$0;
#X obj 90 84 r fold1_\$0;
#X obj 567 -580 random 100;
#X obj 567 -555 / 100;
#X obj 567 -530 s am_\$0;
#X obj 223 165 r am_\$0;
#X obj 655 -532 s para1_\$0;
#X obj 745 -532 s para2_\$0;
#X obj 835 -532 s para3_\$0;
#X obj 925 -532 s para4_\$0;
#X obj 245 -532 s fund_\$0;
#X obj 65 -311 r fund_\$0;
#X obj 65 -287 *, f 12;
#X obj 289 -397 r para1_\$0;
#X obj 85 -426 bng 19 250 50 0 empty empty empty 0 -10 0 12 #fcfcfc #000000 #000000;
#X obj 85 -402 s bang_\$0;
#X obj 85 -485 loadbang;
#X obj 58 -599 r bang_\$0;
#X obj 65 -263 +~, f 27;
#X obj 251 -355 osc~;
#X obj 289 -373 / 5;
#X obj 251 -332 *~;
#X obj 289 -350 / 10;
#X obj 251 -286 osc~;
#X obj 251 -309 +~;
#X obj 146 -310 r para1_\$0;
#X obj 83 -194 r fund_\$0;
#X obj 83 -170 *, f 12;
#X obj 83 -146 +~, f 27;
#X obj 269 -238 osc~;
#X obj 269 -215 *~;
#X obj 269 -169 osc~;
#X obj 269 -192 +~;
#X obj 307 -280 r para2_\$0;
#X obj 164 -193 r para2_\$0;
#X obj 65 -240 osc~;
#X obj 65 -52 +~, f 5;
#X obj 97 -122 r fund_\$0;
#X obj 97 -98 +~, f 36;
#X obj 346 -190 osc~;
#X obj 346 -167 *~;
#X obj 346 -121 osc~;
#X obj 346 -144 +~;
#X obj 97 -75 osc~;
#X obj 384 -232 r para3_\$0;
#X obj 167 -33 r fund_\$0;
#X obj 167 -9 *, f 12;
#X obj 167 15 +~, f 30;
#X obj 374 -77 osc~;
#X obj 412 -95 / 5;
#X obj 374 -54 *~;
#X obj 412 -72 / 10;
#X obj 374 -8 osc~;
#X obj 374 -31 +~;
#X obj 412 -49 / 8;
#X obj 412 -119 r para4_\$0;
#X obj 248 -32 r para4_\$0;
#X obj 384 -208 / 10;
#X obj 384 -162 / 20;
#X obj 384 -185 / 2;
#X obj 25 -468 key;
#X obj 25 -444 sel 47;
#X obj 245 -580 random 200;
#X obj 245 -556 + 100;
#X obj 65 487 outlet~;
#X obj 216 487 outlet~;
#X obj 1008 -580 random 20;
#X obj 1008 -556 * 1000;
#X obj 1008 -508 s duracao_\$0;
#X obj 307 -210 / 0.05;
#X obj 307 -256 / 9;
#X obj 307 -233 / 5;
#X obj 289 -327 / 5;
#X obj 1118 -509 * 1000;
#X obj 1118 -533 random 10;
#X obj 1118 -461 s entrada_\$0;
#X obj 1118 -580 random 4;
#X obj 1118 -556 sel 0, f 12;
#X msg 1199 -484 5;
#X obj 65 405 *~;
#X obj 83 359 vline~;
#X obj 83 290 f;
#X obj 215 248 r entrada_\$0;
#X obj 101 267 r duracao_\$0;
#X obj 168 -444 metro 20000;
#X obj 242 -498 r duracao_\$0;
#X floatatom 265 -448 5 0 0 0 - - - 0;
#X obj 168 -398 s bang2_\$0;
#X obj 392 272 r bang2_\$0;
#X obj 1118 -485 + 4000;
#X obj 197 290 f;
#X obj 168 -421 delay 10;
#X obj 242 -474 + 5000;
#X obj 83 382 pow~ 0.4;
#X obj 1008 -532 + 35000;
#X obj 168 -467 del 10;
#X obj 311 290 f;
#X obj 329 267 + 3000;
#X obj 83 313 pack f f f, f 33;
#X msg 83 336 0 5 \, 1 3000 \$2 \, 0 \$1 \$3;
#X obj 22 -512 r cloneBang;
#X obj 167 130 gaiaFold~;
#X obj 65 130 gaiaFold~;
#X connect 0 0 99 0;
#X connect 0 1 100 0;
#X connect 1 0 2 0;
#X connect 2 0 137 0;
#X connect 3 0 11 0;
#X connect 4 0 7 0;
#X connect 5 0 136 0;
#X connect 6 0 0 0;
#X connect 7 0 5 0;
#X connect 8 0 9 0;
#X connect 8 1 9 1;
#X connect 9 0 10 0;
#X connect 9 1 10 1;
#X connect 10 0 114 0;
#X connect 11 0 71 0;
#X connect 13 0 14 0;
#X connect 14 0 15 0;
#X connect 16 0 0 1;
#X connect 17 0 18 0;
#X connect 18 0 41 0;
#X connect 19 0 20 0;
#X connect 20 0 42 0;
#X connect 21 0 22 0;
#X connect 22 0 43 0;
#X connect 23 0 24 0;
#X connect 24 0 44 0;
#X connect 25 0 26 0;
#X connect 26 0 27 0;
#X connect 27 0 28 0;
#X connect 28 0 29 0;
#X connect 30 0 31 0;
#X connect 31 0 34 0;
#X connect 32 0 30 0;
#X connect 34 0 33 0;
#X connect 35 0 5 1;
#X connect 36 0 2 1;
#X connect 37 0 38 0;
#X connect 38 0 39 0;
#X connect 40 0 9 2;
#X connect 46 0 47 0;
#X connect 47 0 53 0;
#X connect 48 0 55 0;
#X connect 48 0 57 0;
#X connect 48 0 107 0;
#X connect 49 0 50 0;
#X connect 51 0 49 0;
#X connect 51 0 130 0;
#X connect 52 0 13 0;
#X connect 52 0 37 0;
#X connect 52 0 32 0;
#X connect 52 0 25 0;
#X connect 52 0 23 0;
#X connect 52 0 21 0;
#X connect 52 0 19 0;
#X connect 52 0 17 0;
#X connect 52 0 97 0;
#X connect 52 0 111 0;
#X connect 52 0 101 0;
#X connect 53 0 70 0;
#X connect 54 0 56 0;
#X connect 55 0 54 0;
#X connect 56 0 59 0;
#X connect 57 0 56 1;
#X connect 58 0 53 1;
#X connect 59 0 58 0;
#X connect 60 0 47 1;
#X connect 61 0 62 0;
#X connect 62 0 63 0;
#X connect 63 0 11 1;
#X connect 64 0 65 0;
#X connect 65 0 67 0;
#X connect 66 0 63 1;
#X connect 67 0 66 0;
#X connect 68 0 104 0;
#X connect 68 0 105 0;
#X connect 68 0 106 0;
#X connect 69 0 62 1;
#X connect 70 0 3 0;
#X connect 71 0 1 0;
#X connect 72 0 73 0;
#X connect 73 0 78 0;
#X connect 74 0 75 0;
#X connect 75 0 77 0;
#X connect 76 0 73 1;
#X connect 77 0 76 0;
#X connect 78 0 71 1;
#X connect 79 0 92 0;
#X connect 79 0 93 0;
#X connect 79 0 94 0;
#X connect 80 0 81 0;
#X connect 81 0 82 0;
#X connect 82 0 4 0;
#X connect 83 0 85 0;
#X connect 84 0 83 0;
#X connect 85 0 88 0;
#X connect 86 0 85 1;
#X connect 87 0 82 1;
#X connect 88 0 87 0;
#X connect 89 0 88 1;
#X connect 90 0 84 0;
#X connect 90 0 86 0;
#X connect 90 0 89 0;
#X connect 91 0 81 1;
#X connect 92 0 74 0;
#X connect 93 0 77 1;
#X connect 94 0 75 1;
#X connect 95 0 96 0;
#X connect 96 0 49 0;
#X connect 97 0 98 0;
#X connect 98 0 45 0;
#X connect 101 0 102 0;
#X connect 102 0 129 0;
#X connect 104 0 67 1;
#X connect 105 0 64 0;
#X connect 106 0 65 1;
#X connect 107 0 59 1;
#X connect 108 0 124 0;
#X connect 109 0 108 0;
#X connect 111 0 112 0;
#X connect 112 0 109 0;
#X connect 112 1 113 0;
#X connect 113 0 110 0;
#X connect 114 0 6 0;
#X connect 115 0 128 0;
#X connect 116 0 133 0;
#X connect 117 0 125 1;
#X connect 117 0 132 0;
#X connect 118 0 116 1;
#X connect 119 0 49 0;
#X connect 119 0 126 0;
#X connect 120 0 121 0;
#X connect 120 0 127 0;
#X connect 123 0 116 0;
#X connect 123 0 125 0;
#X connect 123 0 131 0;
#X connect 124 0 110 0;
#X connect 125 0 133 1;
#X connect 126 0 122 0;
#X connect 127 0 119 1;
#X connect 128 0 114 1;
#X connect 129 0 103 0;
#X connect 130 0 119 0;
#X connect 131 0 133 2;
#X connect 132 0 131 1;
#X connect 133 0 134 0;
#X connect 134 0 115 0;
#X connect 135 0 49 0;
#X connect 136 0 8 1;
#X connect 137 0 8 0;
