#N canvas 0 32 1366 671 12;
#X declare -path gaiaSensesLib;
#N canvas 0 32 1366 671 anotações 0;
#X text 17 15 Flor \; \; Para a flor não existe condição adversa \; Ela torna visível sua reinterpretação da realidade \; como os artistas \; \; Ideias pro patch \; \; [phaseMod01~] com uma das entradas constante e a outra variando \, mudando sua em duas ondas que se alternam (quando uma está "selecionada" \, a outra muda seus parâmetros \; \; A frequência do modulador possui relação harmônica (com imprecisões) \, e possui múltiplos maiores quando está frio (timbre com conteúdo harmôico agudo) \, e menores quando está quente (timbre com conteúdo harmônico grave) \; \; Gerar uma melodia bonita no carrier \; \; \; mínimo 10 - máx 31 \; \; \; Ta ficando bem massa \, criei uns objetos bons pra deixar o som mais interessante \; \; pra ligar \; \; freq \; shift ? \; dca~;
#X obj 204 385 declare -path gaiaSensesLib;
#X text 452 15 T > 30: f = 30 \; 28 < T > 30: f = 60 \; 26 < T > 28: f = 90 \; 24 < T > 26: f = 120 \; 22 < T > 24: f = 150 \; 20 < T > 22: f = 180 \; 18 < T > 20: f = 210 \; 16 < T > 18: f = 240 \; 14 < T > 16: f = 270 \; 12 < T > 14: f = 300 \; 10 < T > 12: f = 330 \; 8 < T > 10: f = 360 \; 6 < T > 08: f = 390 \; 4 < T > 06: f = 410 \; T < 4: f = 440 \; \; \; Objetos utilizados \; \; phaseMod01~ \; stereo01~ \; gaiaFM01~ \; counter01 \; bipolar~ \; reverb03 \; delrev~ distort01~ \; vline01~;
#X restore 612 20 pd anotações;
#X obj 612 43 loadbang;
#X obj 612 66 del 5;
#X obj 612 89 s lb_\$0;
#X obj 612 227 s bng_\$0;
#X obj 20 43 phaseMod01~, f 39;
#X obj 20 89 *~;
#N canvas 0 32 1366 671 almaDaFlor 0;
#X obj 20 217 bipolar~;
#X obj 20 171 +~ 300, f 20;
#X obj 20 412 outlet~;
#X obj 20 263 throw~ alma_\$0;
#X obj 20 389 catch~ alma_\$0;
#X obj 20 240 *~, f 26;
#X obj 199 171 r lb_\$0;
#X msg 199 194 1 5000;
#X obj 199 217 vline~;
#X obj 157 148 r melodia_\$0;
#X obj 20 20 r temperatura_\$0;
#X obj 20 89 s melodia_\$0;
#X obj 20 43 expr 30 * ($f1 * -0.5 + 16);
#X obj 20 66 clip 15 4577.25;
#X obj 20 194 gaiaFM01~ 50 1 0.5 1.1;
#X obj 20 148 gaiaFM01~ 0.9 0.5;
#X connect 0 0 5 0;
#X connect 1 0 14 0;
#X connect 4 0 2 0;
#X connect 5 0 3 0;
#X connect 6 0 7 0;
#X connect 7 0 8 0;
#X connect 8 0 5 1;
#X connect 9 0 1 1;
#X connect 10 0 12 0;
#X connect 12 0 13 0;
#X connect 13 0 11 0;
#X connect 14 0 0 0;
#X connect 15 0 1 0;
#X restore 20 20 pd almaDaFlor;
#N canvas 0 32 1366 671 energiaExterna 0;
#X obj 20 412 outlet~;
#X obj 20 389 catch~ energia_\$0;
#N canvas 0 32 1366 671 triggers 0;
#X obj 20 20 r bng_\$0;
#X obj 20 66 sel 0;
#X obj 20 112 sel 0 1 2, f 31;
#X obj 20 135 s tg1_\$0;
#X obj 91 135 s tg2_\$0;
#X obj 162 135 s tg3_\$0;
#X obj 234 134 t b;
#X obj 234 157 s tg4_\$0;
#X obj 20 89 counter01 4;
#X obj 20 43 counter01 1;
#X connect 0 0 9 0;
#X connect 1 0 8 0;
#X connect 2 0 3 0;
#X connect 2 1 4 0;
#X connect 2 2 5 0;
#X connect 2 3 6 0;
#X connect 6 0 7 0;
#X connect 8 0 2 0;
#X connect 9 0 1 0;
#X restore 620 30 pd triggers;
#N canvas 0 32 1366 671 mixCores 0;
#X floatatom 460 83 5 0 0 0 - - - 0;
#X obj 50 105 expr~ if($v1 > 0.5 \, pow(2 - (2 * $v1) \, $f2) \, pow((2 * $v1) \, $f2)) \;;
#X obj 164 164 delread~ a_\$0 1000;
#X obj 299 164 delread~ a_\$0 2000;
#X obj 434 164 delread~ a_\$0 3000;
#X obj 50 141 delwrite~ a_\$0 5000;
#X obj 460 37 r lb_\$0;
#X obj 50 164 delread~ a_\$0 0;
#X obj 50 210 s~ mix1_\$0;
#X obj 50 187 *~ 0.4;
#X obj 164 187 *~ 0.4;
#X obj 299 187 *~ 0.4;
#X obj 434 187 *~ 0.4;
#X obj 434 210 s~ mix4_\$0;
#X obj 299 210 s~ mix3_\$0;
#X obj 164 210 s~ mix2_\$0;
#X obj 50 82 phasor~ 0.25;
#X msg 460 60 2;
#X connect 0 0 1 1;
#X connect 1 0 5 0;
#X connect 2 0 10 0;
#X connect 3 0 11 0;
#X connect 4 0 12 0;
#X connect 6 0 17 0;
#X connect 7 0 9 0;
#X connect 9 0 8 0;
#X connect 10 0 15 0;
#X connect 11 0 14 0;
#X connect 12 0 13 0;
#X connect 16 0 1 0;
#X connect 17 0 0 0;
#X restore 620 53 pd mixCores;
#N canvas 0 32 1366 671 energia1 0;
#X obj 20 211 *~, f 23;
#X obj 20 188 bipolar~;
#X floatatom 20 97 8 0 0 0 - - - 0;
#X obj 171 96 r melodia_\$0;
#X floatatom 301 96 5 0 0 0 - - - 0;
#X obj 171 119 *~, f 19;
#X obj 20 142 +~, f 22;
#X obj 301 27 r tg1_\$0;
#X obj 178 188 r~ mix1_\$0;
#X obj 20 410 outlet~;
#X obj 301 73 + 2;
#X obj 301 50 random 6;
#X obj 20 119 gaiaFM01~ 2000.2 0.1;
#X obj 20 165 gaiaFM01~ 500 1;
#X connect 0 0 9 0;
#X connect 1 0 0 0;
#X connect 2 0 12 0;
#X connect 3 0 5 0;
#X connect 4 0 5 1;
#X connect 5 0 6 1;
#X connect 6 0 13 0;
#X connect 7 0 11 0;
#X connect 8 0 0 1;
#X connect 10 0 4 0;
#X connect 11 0 10 0;
#X connect 12 0 6 0;
#X connect 13 0 1 0;
#X restore 26 205 pd energia1;
#X obj 26 228 throw~ energia_\$0;
#X obj 152 228 throw~ energia_\$0;
#N canvas 0 32 1366 671 energia2 0;
#X obj 20 211 *~, f 23;
#X obj 20 188 bipolar~;
#X obj 199 96 r melodia_\$0;
#X floatatom 329 96 5 0 0 0 - - - 0;
#X obj 199 119 *~, f 19;
#X obj 20 142 +~, f 26;
#X obj 20 410 outlet~;
#X obj 178 188 r~ mix2_\$0;
#X obj 329 27 r tg2_\$0;
#X obj 329 73 + 3;
#X obj 329 50 random 7;
#X obj 20 119 gaiaFM01~ 2000.2 0.1;
#X obj 20 165 gaiaFM01~ 500 1 0.5 1;
#X connect 0 0 6 0;
#X connect 1 0 0 0;
#X connect 2 0 4 0;
#X connect 3 0 4 1;
#X connect 4 0 5 1;
#X connect 5 0 12 0;
#X connect 7 0 0 1;
#X connect 8 0 10 0;
#X connect 9 0 3 0;
#X connect 10 0 9 0;
#X connect 11 0 5 0;
#X connect 12 0 1 0;
#X restore 152 205 pd energia2;
#X obj 280 228 throw~ energia_\$0;
#N canvas 0 32 1366 671 energia3 0;
#X obj 20 211 *~, f 23;
#X obj 20 188 bipolar~;
#X obj 185 96 r melodia_\$0;
#X floatatom 315 96 5 0 0 0 - - - 0;
#X obj 185 119 *~, f 19;
#X obj 20 142 +~, f 24;
#X obj 20 410 outlet~;
#X obj 315 27 r tg3_\$0;
#X obj 178 188 r~ mix3_\$0;
#X obj 315 50 random 15;
#X obj 315 73 + 7;
#X obj 20 119 gaiaFM01~ 2000.2 0.1;
#X obj 20 165 gaiaFM01~ 500 1 0.5 1;
#X connect 0 0 6 0;
#X connect 1 0 0 0;
#X connect 2 0 4 0;
#X connect 3 0 4 1;
#X connect 4 0 5 1;
#X connect 5 0 12 0;
#X connect 7 0 9 0;
#X connect 8 0 0 1;
#X connect 9 0 10 0;
#X connect 10 0 3 0;
#X connect 11 0 5 0;
#X connect 12 0 1 0;
#X restore 280 205 pd energia3;
#X obj 408 228 throw~ energia_\$0;
#N canvas 0 28 1366 671 energia4 0;
#X obj 20 211 *~, f 23;
#X obj 20 188 bipolar~;
#X obj 192 96 r melodia_\$0;
#X floatatom 322 96 5 0 0 0 - - - 0;
#X obj 192 119 *~, f 19;
#X obj 20 142 +~, f 25;
#X obj 20 410 outlet~;
#X obj 322 27 r tg4_\$0;
#X obj 178 188 r~ mix4_\$0;
#X obj 322 50 random 20;
#X obj 322 73 + 2;
#X obj 20 119 gaiaFM01~ 2000.2 0.1;
#X obj 20 165 gaiaFM01~ 500 1 0.5 1;
#X connect 0 0 6 0;
#X connect 1 0 0 0;
#X connect 2 0 4 0;
#X connect 3 0 4 1;
#X connect 4 0 5 1;
#X connect 5 0 12 0;
#X connect 7 0 9 0;
#X connect 8 0 0 1;
#X connect 9 0 10 0;
#X connect 10 0 3 0;
#X connect 11 0 5 0;
#X connect 12 0 1 0;
#X restore 408 205 pd energia4;
#X connect 1 0 0 0;
#X connect 4 0 5 0;
#X connect 7 0 6 0;
#X connect 9 0 8 0;
#X connect 11 0 10 0;
#X restore 155 20 pd energiaExterna;
#N canvas 0 32 1366 671 expectador 0;
#X obj 20 143 bipolar~;
#X obj 20 412 outlet~;
#X obj 20 389 catch~ expectador_\$0;
#X obj 20 189 throw~ expectador_\$0;
#X obj 20 20 r melodia_\$0;
#X floatatom 123 84 5 0 0 0 - - - 0;
#X obj 20 166 *~ 0.5;
#X obj 20 43 *~ 4.001;
#X obj 20 120 gaiaFM01~ 550 1;
#X connect 0 0 6 0;
#X connect 2 0 1 0;
#X connect 4 0 7 0;
#X connect 6 0 3 0;
#X connect 7 0 8 0;
#X connect 8 0 0 0;
#X restore 38 66 pd expectador;
#X obj 20 112 *~, f 18;
#X obj 612 158 s cochias_\$0;
#N canvas 0 28 1440 872 espaço 0;
#X obj 20 412 outlet~;
#X obj 20 20 inlet~;
#X obj 215 412 outlet~;
#X obj 20 244 s~ esq_\$0;
#X obj 215 244 s~ dir_\$0;
#X obj 215 389 r~ dir_\$0;
#X obj 20 389 r~ esq_\$0;
#X obj 20 79 reverb03;
#X connect 1 0 7 0;
#X connect 5 0 2 0;
#X connect 6 0 0 0;
#X connect 7 0 3 0;
#X connect 7 1 4 0;
#X restore 20 181 pd espaço;
#X obj 20 204 stereo01~;
#N canvas 0 28 1440 872 distorçãoDaRealidade 0;
#X obj 20 20 inlet~;
#X obj 20 412 outlet~;
#X obj 20 230 distort01~;
#X obj 87 207 expr 1 - $f1;
#X obj 54 125 r temperatura_\$0;
#X obj 425 107 r vento_\$0;
#X obj 425 130 t b f;
#X obj 20 43 s~ tempoPuro_\$0;
#X obj 20 102 r~ tempoPuro_\$0;
#X obj 20 253 s~ tempoDistorcidoPelaInterpretaçãoHumana_\$0;
#X obj 20 389 r~ tempoDistorcidoPelaInterpretaçãoHumana_\$0;
#X obj 54 148 expr if($f1 > 27 && $f2 < 10 \, 2 * (11 - $f2) \, if($f1 > 40 \, $f1 \, 1));
#X obj 532 46 s temperatura_\$0;
#X obj 532 98 s umidade_\$0;
#X obj 532 150 s vento_\$0;
#X floatatom 532 24 5 0 0 0 - - - 0;
#X text 571 15 min: -273.15 \; max: inf;
#X floatatom 532 76 5 0 0 0 - - - 0;
#X text 571 67 min: 0 \; max: 1;
#X floatatom 532 128 5 0 0 0 - - - 0;
#X text 571 119 min: 0 \; max: inf;
#X obj 87 184 r umidade_\$0;
#X connect 0 0 7 0;
#X connect 2 0 9 0;
#X connect 3 0 2 2;
#X connect 4 0 11 0;
#X connect 5 0 6 0;
#X connect 6 0 11 0;
#X connect 6 1 11 1;
#X connect 8 0 2 0;
#X connect 10 0 1 0;
#X connect 11 0 2 1;
#X connect 15 0 12 0;
#X connect 17 0 13 0;
#X connect 19 0 14 0;
#X connect 21 0 3 0;
#X restore 20 135 pd distorçãoDaRealidade;
#X obj 612 112 r lb_\$0;
#X msg 612 135 1;
#X obj 612 204 metro 1000;
#X obj 455 92 s temperatura_\$0;
#X obj 455 144 s umidade_\$0;
#X obj 455 196 s vento_\$0;
#X floatatom 455 70 5 0 0 0 - - - 0;
#X text 494 61 min: -273.15 \; max: inf;
#X floatatom 455 122 5 0 0 0 - - - 0;
#X text 494 113 min: 0 \; max: 1;
#X floatatom 455 174 5 0 0 0 - - - 0;
#X text 494 165 min: 0 \; max: inf;
#X obj 20 158 *~ 0.6;
#X obj 612 181 r lb_\$0;
#N canvas 0 25 1440 847 absorçãoDaEnergia 0;
#X obj 20 43 +~ 10;
#X obj 20 66 outlet~;
#X obj 20 20 gaiaFM01~ 0.25 2;
#X connect 0 0 1 0;
#X connect 2 0 0 0;
#X restore 290 20 pd absorçãoDaEnergia;
#X obj 455 20 bng 19 250 50 0 empty empty empty 0 -10 0 12 #fcfcfc #000000 #000000;
#N canvas 0 25 1440 847 random 0;
#X obj 20 20 inlet;
#X obj 20 43 s rBng_\$0;
#X obj 20 102 r rBng_\$0;
#X obj 20 125 random 40;
#X obj 20 148 s temperatura_\$0;
#X obj 20 171 r rBng_\$0;
#X obj 20 217 / 100;
#X obj 20 194 random 100;
#X obj 20 263 s umidade_\$0;
#X obj 20 286 r rBng_\$0;
#X obj 20 309 random 20;
#X obj 20 332 s vento_\$0;
#X floatatom 141 143 5 0 0 0 - - - 0;
#X floatatom 124 258 5 0 0 0 - - - 0;
#X floatatom 99 327 5 0 0 0 - - - 0;
#X obj 20 240 pow 0.7;
#X connect 0 0 1 0;
#X connect 2 0 3 0;
#X connect 3 0 4 0;
#X connect 3 0 12 0;
#X connect 5 0 7 0;
#X connect 6 0 15 0;
#X connect 7 0 6 0;
#X connect 9 0 10 0;
#X connect 10 0 11 0;
#X connect 10 0 14 0;
#X connect 15 0 13 0;
#X connect 15 0 8 0;
#X restore 455 44 pd random;
#X msg 650 140 0;
#N canvas 0 28 1440 872 cochias 0;
#X obj 20 20 r cochias_\$0;
#X obj 20 66 vline~;
#X msg 20 43 \$1 4000;
#X obj 20 89 pow~ 2;
#X obj 20 112 outlet~;
#X connect 0 0 2 0;
#X connect 1 0 3 0;
#X connect 2 0 1 0;
#X connect 3 0 4 0;
#X restore 143 89 pd cochias;
#X connect 1 0 2 0;
#X connect 2 0 3 0;
#X connect 5 0 6 0;
#X connect 6 0 10 0;
#X connect 7 0 5 0;
#X connect 8 0 5 1;
#X connect 9 0 6 1;
#X connect 10 0 14 0;
#X connect 12 0 13 0;
#X connect 12 1 13 1;
#X connect 14 0 27 0;
#X connect 15 0 16 0;
#X connect 16 0 11 0;
#X connect 17 0 4 0;
#X connect 21 0 18 0;
#X connect 23 0 19 0;
#X connect 25 0 20 0;
#X connect 27 0 12 0;
#X connect 28 0 17 0;
#X connect 29 0 5 2;
#X connect 30 0 31 0;
#X connect 32 0 11 0;
#X connect 33 0 10 1;
