#N canvas 0 69 1366 674 12;
#X obj 780 267 tgl 19 0 empty empty empty 0 -10 0 12 #fcfcfc #000000
#000000 0 1;
#X obj 780 291 metro 100;
#X obj 780 314 random;
#X obj 780 337 sel 0;
#X floatatom 862 297 5 0 0 0 - - -, f 5;
#X obj 334 329 f;
#X obj 255 329 f;
#X obj 203 265 r bng_\$0;
#X obj 703 355 s bng_\$0;
#X obj 203 310 bng 19 250 50 0 empty empty empty 0 -10 0 12 #fcfcfc
#000000 #000000;
#X obj 780 475 f;
#X obj 780 360 random 100;
#X obj 780 383 / 100;
#X obj 882 447 f;
#X obj 414 329 f;
#X obj 496 329 f;
#X msg 496 352 0 \, 1 \$1;
#X obj 496 467 osc~;
#X obj 496 444 +~;
#X obj 496 421 *~;
#X floatatom 550 381 5 0 0 0 - - -, f 5;
#X obj 352 306 + 500;
#X obj 352 283 random 800;
#X obj 273 283 random 100;
#X obj 840 268 r fps_\$0;
#X obj 900 424 r fps_\$0;
#X obj 514 306 r fps_\$0;
#X obj 432 306 r fps_\$0;
#X obj 255 352 s min_\$0;
#X obj 334 352 s range_\$0;
#X obj 532 426 r min_\$0;
#X obj 554 403 r range_\$0;
#X obj 273 306 + 300;
#X obj 496 743 dac~, f 22;
#X obj 496 644 *~, f 18;
#X obj 780 429 r bng_\$0;
#X obj 780 406 s rdm_\$0;
#X obj 798 452 r rdm_\$0;
#X obj 647 644 r rdm_\$0;
#X obj 709 273 loadbang;
#X text 777 249 parar;
#X text 200 240 define o envelope de frequência das gotas;
#X text 872 364 randomiza a intensidade do envelope de amplitude das
gotas, f 25;
#X text 735 667 randomiza a posição da gota (esquerda - direita)
, f 25;
#X obj 780 584 line~;
#X obj 496 375 line~;
#X obj 460 724 *~;
#X obj 509 693 -;
#X msg 509 663 1;
#X obj 647 668 bng 19 250 50 0 empty empty empty 0 -10 0 12 #fcfcfc
#000000 #000000;
#X obj 592 712 *~;
#X msg 876 577 0 \$1;
#X msg 780 521 \$1 10;
#X obj 828 491 del 10;
#X obj 496 398 *~;
#X connect 0 0 1 0;
#X connect 1 0 2 0;
#X connect 2 0 3 0;
#X connect 3 0 8 0;
#X connect 3 0 11 0;
#X connect 4 0 2 1;
#X connect 5 0 29 0;
#X connect 6 0 28 0;
#X connect 7 0 9 0;
#X connect 7 0 22 0;
#X connect 7 0 23 0;
#X connect 9 0 6 0;
#X connect 9 0 5 0;
#X connect 9 0 14 0;
#X connect 9 0 15 0;
#X connect 10 0 52 0;
#X connect 11 0 12 0;
#X connect 12 0 36 0;
#X connect 13 0 51 0;
#X connect 15 0 16 0;
#X connect 16 0 45 0;
#X connect 17 0 34 0;
#X connect 18 0 17 0;
#X connect 19 0 18 0;
#X connect 21 0 5 1;
#X connect 22 0 21 0;
#X connect 23 0 32 0;
#X connect 24 0 1 1;
#X connect 25 0 13 1;
#X connect 26 0 15 1;
#X connect 27 0 14 1;
#X connect 30 0 18 1;
#X connect 31 0 19 1;
#X connect 32 0 6 1;
#X connect 34 0 46 0;
#X connect 34 0 50 0;
#X connect 35 0 10 0;
#X connect 35 0 53 0;
#X connect 37 0 10 1;
#X connect 38 0 47 1;
#X connect 38 0 49 0;
#X connect 38 0 50 1;
#X connect 39 0 1 0;
#X connect 44 0 34 1;
#X connect 45 0 54 0;
#X connect 45 0 54 1;
#X connect 46 0 33 0;
#X connect 47 0 46 1;
#X connect 48 0 47 0;
#X connect 49 0 48 0;
#X connect 50 0 33 1;
#X connect 51 0 44 0;
#X connect 52 0 44 0;
#X connect 53 0 13 0;
#X connect 54 0 19 0;
