#N canvas 0 28 1440 795 12;
#X floatatom 394 -625 5 0 0 0 - - - 0;
#X floatatom -958 261 5 0 0 0 - - - 0;
#X floatatom 2511 -65 5 0 0 0 - - - 0;
#X floatatom 831 1737 5 0 0 0 - - - 0;
#X obj 1163 -223 loadbang;
#X obj 1163 -168 bng 19 250 50 0 lb_\$0 empty empty 0 -10 0 12 #fcfcfc #000000 #000000;
#X obj 1163 -198 del 5;
#N canvas 0 0 1440 872 preset 0;
#X obj 160 120 r lb_\$0;
#X msg 160 143 10000 10001 0.09 1.91 3000;
#X obj 370 120 r lb_\$0;
#X msg 370 143 5000 9000 0.25 1 3000;
#X obj 543 120 r lb_\$0;
#X msg 543 143 50 40 0.09 50 15000;
#X obj 160 166 outlet;
#X obj 370 166 outlet;
#X obj 543 166 outlet;
#X obj 29 120 r lb_\$0;
#X msg 29 143 5000;
#X obj 29 166 outlet;
#X connect 0 0 1 0;
#X connect 1 0 6 0;
#X connect 2 0 3 0;
#X connect 3 0 7 0;
#X connect 4 0 5 0;
#X connect 5 0 8 0;
#X connect 9 0 10 0;
#X connect 10 0 11 0;
#X restore 1988 48 pd preset;
#X f 60;
#X obj 1988 71 unpack;
#X obj 2127 71 unpack f f f f f;
#X obj 2266 71 unpack f f f f f;
#X obj 2405 71 unpack f f f f f;
#X obj 405 308 catch~ mix_\$0;
#X obj 406 612 stereo01~;
#X obj 406 424 *~;
#X obj 424 354 tgl 19 0 empty empty empty 0 -10 0 12 #fcfcfc #000000 #000000 0 1;
#X msg 424 378 \$1 100;
#X obj 424 401 vline~;
#X msg 643 478 \; mix 0.6;
#X obj 643 454 r lb_\$0;
#X obj 406 447 reverb03;
#X obj 405 331 *~ 0.4;
#X obj 713 182 *~;
#X obj 731 112 tgl 19 1 empty empty empty 0 -10 0 12 #fcfcfc #000000 #000000 1 1;
#X msg 731 136 \$1 100;
#X obj 731 159 vline~;
#X obj 713 205 throw~ mix_\$0;
#N canvas 0 0 1440 872 chuva 0;
#X obj 268 334 FM01~;
#X obj 308 358 expr~ $v1 * 2 - 1;
#X floatatom 260 303 9 0 0 0 - - - 0;
#X obj 449 327 FM01~;
#X obj 489 351 expr~ $v1 * 2 - 1;
#X floatatom 625 272 5 0 0 0 - - - 0;
#X obj 489 407 bob~;
#X floatatom 553 391 5 0 0 0 - - - 0;
#X obj 622 203 hsl 162 19 0 134 0 0 empty empty empty -2 -10 0 12 #fcfcfc #000000 #000000 0 1;
#X obj 619 227 mtof;
#X obj 625 294 +~;
#X floatatom 452 288 10 0 0 0 - - - 0;
#X obj 360 439 *~;
#X obj 356 665 hip~ 20;
#X floatatom 375 398 5 0 0 0 - - - 0;
#X floatatom 489 450 7 0 0 0 - - - 0;
#X obj 489 472 FM01~;
#X obj 412 541 expr~ $v1 * 2 - 1;
#X obj 478 507 bob~;
#X floatatom 601 454 5 0 0 0 - - - 0;
#X floatatom 594 545 5 0 0 0 - - - 0;
#X obj 646 385 hsl 162 19 0 134 0 0 empty empty empty -2 -10 0 12 #fcfcfc #000000 #000000 0 1;
#X obj 627 409 mtof;
#X floatatom 433 575 6 0 0 0 - - - 0;
#X floatatom 494 605 5 0 0 0 - - - 0;
#X floatatom 427 640 5 0 0 0 - - - 0;
#X obj 360 572 *~;
#X obj 303 240 hsl 162 19 0 134 0 0 empty empty empty -2 -10 0 12 #fcfcfc #000000 #000000 0 1;
#X obj 300 264 mtof;
#X obj 486 180 hsl 162 19 0 134 0 0 empty empty empty -2 -10 0 12 #fcfcfc #000000 #000000 0 1;
#X obj 483 204 mtof;
#X obj 572 475 +~;
#X obj 401 597 +~;
#X msg 182 314 2160;
#X msg 549 267 1156;
#X msg 694 259 681;
#X msg 680 461 4442;
#X msg 513 660 325;
#X msg 422 425 20000;
#X msg 628 351 1.35;
#X obj 162 344 f;
#X obj 198 343 + 1;
#X floatatom 162 367 5 0 0 0 - - - 0;
#X obj 133 261 bng 19 250 50 0 empty empty empty 0 -10 0 12 #fcfcfc #000000 #000000;
#X obj 549 243 r lb_\$0;
#X obj 694 235 r lb_\$0;
#X obj 162 290 r lb_\$0;
#X obj 422 401 r lb_\$0;
#X obj 680 437 r lb_\$0;
#X obj 628 327 r lb_\$0;
#X obj 562 572 r lb_\$0;
#X obj 513 636 r lb_\$0;
#X obj 334 703 *~ 5;
#X obj 145 509 hsl 162 19 0 127 0 0 empty empty empty -2 -10 0 12 #fcfcfc #000000 #000000 0 1;
#X obj 148 533 mtof;
#X floatatom 148 557 5 0 0 0 - - - 0;
#X obj 334 727 outlet~;
#X msg 562 596 1700;
#X obj 358 619 bob2~;
#X obj 74 470 expr $f1 * 18500 + 1000;
#X obj 61 404 r milimetragemChuva_\$0;
#X connect 0 3 1 0;
#X connect 1 0 12 0;
#X connect 2 0 0 0;
#X connect 3 3 4 0;
#X connect 4 0 6 0;
#X connect 5 0 10 0;
#X connect 6 0 12 1;
#X connect 7 0 6 2;
#X connect 8 0 9 0;
#X connect 9 0 5 0;
#X connect 10 0 6 1;
#X connect 11 0 3 0;
#X connect 12 0 26 0;
#X connect 13 0 52 0;
#X connect 15 0 16 0;
#X connect 16 3 18 0;
#X connect 17 0 26 1;
#X connect 18 0 17 0;
#X connect 19 0 31 0;
#X connect 20 0 18 2;
#X connect 21 0 22 0;
#X connect 22 0 19 0;
#X connect 23 0 32 0;
#X connect 24 0 58 2;
#X connect 25 0 13 1;
#X connect 26 0 58 0;
#X connect 27 0 28 0;
#X connect 28 0 2 0;
#X connect 29 0 30 0;
#X connect 30 0 11 0;
#X connect 31 0 18 1;
#X connect 32 0 58 1;
#X connect 33 0 0 0;
#X connect 33 0 2 0;
#X connect 34 0 3 0;
#X connect 35 0 5 0;
#X connect 35 0 10 0;
#X connect 36 0 19 0;
#X connect 36 0 31 0;
#X connect 37 0 25 0;
#X connect 37 0 13 1;
#X connect 38 0 15 0;
#X connect 38 0 16 0;
#X connect 39 0 7 0;
#X connect 39 0 6 2;
#X connect 40 0 41 0;
#X connect 40 0 42 0;
#X connect 41 0 40 1;
#X connect 43 0 40 0;
#X connect 44 0 34 0;
#X connect 45 0 35 0;
#X connect 46 0 33 0;
#X connect 46 0 40 0;
#X connect 47 0 38 0;
#X connect 48 0 36 0;
#X connect 49 0 39 0;
#X connect 50 0 57 0;
#X connect 51 0 37 0;
#X connect 52 0 56 0;
#X connect 53 0 54 0;
#X connect 54 0 55 0;
#X connect 55 0 23 0;
#X connect 57 0 23 0;
#X connect 57 0 32 0;
#X connect 58 0 13 0;
#X connect 59 0 55 0;
#X connect 60 0 59 0;
#X restore 403 89 pd chuva;
#X obj 403 182 *~;
#X obj 421 112 tgl 19 1 empty empty empty 0 -10 0 12 #fcfcfc #000000 #000000 1 1;
#X msg 421 136 \$1 100;
#X obj 421 159 vline~;
#X obj 403 205 throw~ mix_\$0;
#X obj 484 -61 hsl 162 19 0 1 0 0 empty empty empty -2 -10 0 12 #fcfcfc #000000 #000000 0 1;
#X obj 481 -37 pow 5;
#X obj 672 -61 hsl 162 19 0 1 0 0 empty empty empty -2 -10 0 12 #fcfcfc #000000 #000000 0 1;
#X obj 669 -36 pow 2;
#N canvas 0 28 1440 872 flow2 0;
#X obj 249 330 flow~, f 9;
#X obj 156 373 s~ flow2_\$0;
#N canvas 0 28 1440 872 valores2 0;
#X obj 58 270 sel 0;
#X obj 58 224 t b b b, f 59;
#X obj 263 271 sel 0;
#X obj 263 295 random 100;
#X obj 263 319 expr ($f1 / 100) * 1.5 + 1.5;
#X obj 263 247 random 2;
#X obj 468 247 random 100;
#X obj 468 271 expr ($f1 / 100);
#X obj 58 63 env~;
#X floatatom 58 86 5 0 0 0 - - - 0;
#X obj 58 109 sel 0;
#X obj 58 153 f;
#X obj 88 153 + 1;
#X obj 58 176 sel 0;
#X obj 58 200 bng 19 250 50 0 empty empty empty 0 -10 0 12 #fcfcfc #000000 #000000;
#X msg 90 130 0;
#X obj 58 40 r~ flow2_\$0;
#X obj 58 340 s flow2_freq_\$0;
#X obj 263 343 s flow2_amount_\$0;
#X obj 468 341 s flow2_lfoFreq_\$0;
#X obj 468 318 expr ($f1 * 2) + 0.03;
#X obj 468 295 pow 6;
#X obj 58 247 random 2;
#X obj 58 293 random 4000;
#X obj 58 316 expr $f1 + 4000;
#X obj 377 79 expr $f1 * 4000 + 1000;
#X obj 377 102 s flow2_brilho_\$0;
#X obj 615 52 r lb_\$0;
#X msg 615 76 2;
#X obj 615 100 s flow2_amount_\$0;
#X msg 755 74 1000;
#X obj 755 98 s flow2_brilho_\$0;
#X msg 900 70 5000;
#X obj 900 94 s flow2_freq_\$0;
#X obj 377 56 r quantidadeDeRaios_\$0;
#X connect 0 0 23 0;
#X connect 1 0 22 0;
#X connect 1 1 5 0;
#X connect 1 2 6 0;
#X connect 2 0 3 0;
#X connect 3 0 4 0;
#X connect 4 0 18 0;
#X connect 5 0 2 0;
#X connect 6 0 7 0;
#X connect 7 0 21 0;
#X connect 8 0 9 0;
#X connect 9 0 10 0;
#X connect 10 0 11 0;
#X connect 10 1 15 0;
#X connect 11 0 12 0;
#X connect 11 0 13 0;
#X connect 12 0 11 1;
#X connect 13 0 14 0;
#X connect 14 0 1 0;
#X connect 15 0 11 1;
#X connect 16 0 8 0;
#X connect 20 0 19 0;
#X connect 21 0 20 0;
#X connect 22 0 0 0;
#X connect 23 0 24 0;
#X connect 24 0 17 0;
#X connect 25 0 26 0;
#X connect 27 0 28 0;
#X connect 27 0 30 0;
#X connect 27 0 32 0;
#X connect 28 0 29 0;
#X connect 30 0 31 0;
#X connect 32 0 33 0;
#X connect 34 0 25 0;
#X restore 249 267 pd valores2;
#X floatatom 366 308 5 0 0 0 - flow2_lfoFreq_\$0 - 0;
#X floatatom 482 308 5 0 0 0 - flow2_brilho_\$0 - 0;
#X floatatom 424 308 5 0 0 0 - flow2_amount_\$0 - 0;
#X floatatom 249 290 5 0 0 0 - flow2_freq_\$0 - 0;
#X obj 307 307 + 4000;
#X obj 249 373 outlet~;
#X connect 0 0 1 0;
#X connect 0 0 8 0;
#X connect 3 0 0 2;
#X connect 4 0 0 4;
#X connect 5 0 0 3;
#X connect 6 0 7 0;
#X connect 6 0 0 0;
#X connect 7 0 0 1;
#X restore 713 89 pd flow2;
#X obj 559 182 *~;
#X obj 577 112 tgl 19 1 empty empty empty 0 -10 0 12 #fcfcfc #000000 #000000 1 1;
#X msg 577 136 \$1 100;
#X obj 577 159 vline~;
#X obj 559 205 throw~ mix_\$0;
#N canvas 0 0 1440 872 flow1 0;
#X obj 209 188 flow~, f 9;
#X obj 253 165 + 1;
#X floatatom 298 166 5 0 0 0 - flow1_lfoFreq_\$0 - 0;
#X floatatom 445 182 5 0 0 0 - flow1_brilho_\$0 - 0;
#X floatatom 342 166 5 0 0 0 - flow1_amount_\$0 - 0;
#X obj 106 226 s~ flow1_\$0;
#X floatatom 209 148 5 0 0 0 - flow1_freq_\$0 - 0;
#N canvas 0 0 1440 872 valores1 0;
#X obj 74 290 sel 0;
#X obj 74 313 random 100;
#X obj 74 336 expr $f1 - 50 + 10000;
#X obj 74 244 t b b b, f 59;
#X obj 279 291 sel 0;
#X obj 279 315 random 100;
#X obj 279 339 expr ($f1 / 100) * 1.5 + 1.5;
#X obj 279 267 random 2;
#X obj 484 267 random 100;
#X obj 484 291 expr ($f1 / 100);
#X obj 74 267 random 3;
#X obj 484 315 pow 4;
#X obj 74 360 s flow1_freq_\$0;
#X obj 279 363 s flow1_amount_\$0;
#X obj 484 361 s flow1_lfoFreq_\$0;
#X obj 74 83 env~;
#X floatatom 74 106 5 0 0 0 - - - 0;
#X obj 74 129 sel 0;
#X obj 74 173 f;
#X obj 104 173 + 1;
#X obj 74 60 r~ flow1_\$0;
#X obj 74 196 sel 0;
#X obj 74 220 bng 19 250 50 0 empty empty empty 0 -10 0 12 #fcfcfc #000000 #000000;
#X msg 106 150 0;
#X obj 484 338 expr ($f1 * 2) + 0.03;
#X obj 377 102 s flow1_brilho_\$0;
#X obj 377 79 expr $f1 * 4000 + 1000;
#X obj 615 52 r lb_\$0;
#X msg 615 76 2;
#X msg 755 74 1000;
#X obj 615 100 s flow1_amount_\$0;
#X obj 755 98 s flow1_brilho_\$0;
#X obj 900 94 s flow1_freq_\$0;
#X msg 900 70 10000;
#X obj 377 56 r quantidadeDeRaios_\$0;
#X connect 0 0 1 0;
#X connect 1 0 2 0;
#X connect 2 0 12 0;
#X connect 3 0 10 0;
#X connect 3 1 7 0;
#X connect 3 2 8 0;
#X connect 4 0 5 0;
#X connect 5 0 6 0;
#X connect 6 0 13 0;
#X connect 7 0 4 0;
#X connect 8 0 9 0;
#X connect 9 0 11 0;
#X connect 10 0 0 0;
#X connect 11 0 24 0;
#X connect 15 0 16 0;
#X connect 16 0 17 0;
#X connect 17 0 18 0;
#X connect 17 1 23 0;
#X connect 18 0 19 0;
#X connect 18 0 21 0;
#X connect 19 0 18 1;
#X connect 20 0 15 0;
#X connect 21 0 22 0;
#X connect 22 0 3 0;
#X connect 23 0 18 1;
#X connect 24 0 14 0;
#X connect 26 0 25 0;
#X connect 27 0 28 0;
#X connect 27 0 29 0;
#X connect 27 0 33 0;
#X connect 28 0 30 0;
#X connect 29 0 31 0;
#X connect 33 0 32 0;
#X connect 34 0 26 0;
#X restore 209 125 pd valores1;
#X obj 209 226 outlet~;
#X connect 0 0 5 0;
#X connect 0 0 8 0;
#X connect 1 0 0 1;
#X connect 2 0 0 2;
#X connect 3 0 0 4;
#X connect 4 0 0 3;
#X connect 6 0 1 0;
#X connect 6 0 0 0;
#X restore 560 89 pd flow1;
#X obj 869 182 *~;
#X obj 887 112 tgl 19 1 empty empty empty 0 -10 0 12 #fcfcfc #000000 #000000 1 1;
#X msg 887 136 \$1 100;
#X obj 887 159 vline~;
#X obj 869 205 throw~ mix_\$0;
#N canvas 0 28 1440 900 flow3 0;
#X floatatom 493 218 5 0 0 0 - flow3_freq_\$0 - 0;
#N canvas 0 28 1440 872 valores3 0;
#X obj 160 345 sel 0;
#X obj 160 299 t b b b, f 59;
#X obj 365 346 sel 0;
#X obj 365 370 random 100;
#X obj 365 322 random 2;
#X obj 570 322 random 100;
#X obj 570 346 expr ($f1 / 100);
#X obj 160 138 env~;
#X floatatom 160 161 5 0 0 0 - - - 0;
#X obj 160 184 sel 0;
#X obj 160 228 f;
#X obj 190 228 + 1;
#X obj 160 251 sel 0;
#X obj 160 275 bng 19 250 50 0 empty empty empty 0 -10 0 12 #fcfcfc #000000 #000000;
#X msg 192 205 0;
#X obj 160 322 random 2;
#X obj 160 92 r~ flow3_\$0;
#X obj 199 483 s flow3_freq_\$0;
#X obj 365 418 s flow3_amount_\$0;
#X obj 570 416 s flow3_lfoFreq_\$0;
#X obj 479 177 s flow3_brilho_\$0;
#X obj 160 368 random 8;
#X floatatom 199 461 5 0 0 0 - - - 0;
#X obj 570 370 pow 10;
#X obj 365 394 expr ($f1 / 100) * 30 + 40;
#X obj 570 393 expr ($f1 * 10) + 0.1;
#X obj 199 438 expr ($f1 * 10) + 1;
#X obj 160 414 sel 40;
#X msg 160 465 40;
#X obj 479 154 expr $f1 * 10000 + 5000;
#X obj 703 110 r lb_\$0;
#X obj 703 158 s flow3_amount_\$0;
#X obj 843 156 s flow3_brilho_\$0;
#X obj 988 152 s flow3_freq_\$0;
#X msg 843 132 5000;
#X msg 988 128 40;
#X msg 703 134 50;
#X obj 160 115 pow~ 5;
#X obj 160 391 expr if($f1 > 3 \, $f1 \, 40);
#X obj 479 131 r quantidadeDeRaios_\$0;
#X connect 0 0 21 0;
#X connect 1 0 15 0;
#X connect 1 1 4 0;
#X connect 1 2 5 0;
#X connect 2 0 3 0;
#X connect 3 0 24 0;
#X connect 4 0 2 0;
#X connect 5 0 6 0;
#X connect 6 0 23 0;
#X connect 7 0 8 0;
#X connect 8 0 9 0;
#X connect 9 0 10 0;
#X connect 9 1 14 0;
#X connect 10 0 11 0;
#X connect 10 0 12 0;
#X connect 11 0 10 1;
#X connect 12 0 13 0;
#X connect 13 0 1 0;
#X connect 14 0 10 1;
#X connect 15 0 0 0;
#X connect 16 0 37 0;
#X connect 21 0 38 0;
#X connect 22 0 17 0;
#X connect 23 0 25 0;
#X connect 24 0 18 0;
#X connect 25 0 19 0;
#X connect 26 0 22 0;
#X connect 27 0 28 0;
#X connect 27 1 26 0;
#X connect 28 0 17 0;
#X connect 29 0 20 0;
#X connect 30 0 36 0;
#X connect 30 0 34 0;
#X connect 30 0 35 0;
#X connect 34 0 32 0;
#X connect 35 0 33 0;
#X connect 36 0 31 0;
#X connect 37 0 7 0;
#X connect 38 0 27 0;
#X connect 39 0 29 0;
#X restore 181 277 pd valores3;
#X obj 94 391 s~ flow3_\$0;
#X msg 407 235 50;
#X floatatom 423 327 5 0 0 0 - flow3_brilho_\$0 - 0;
#X obj 408 522 outlet~;
#X obj 493 258 osc~;
#X obj 407 281 phaseMod01~, f 25;
#X obj 407 258 osc~;
#X obj 407 349 bob2~;
#X obj 642 326 /~;
#X obj 660 303 * 1.5;
#X obj 407 372 *~, f 34;
#X obj 642 349 pow~ 0.5;
#X obj 579 212 vline~;
#X obj 579 258 expr~ $v1 * $f2 + 0.5;
#X obj 579 49 r lb_\$0;
#X floatatom 1005 -422 5 0 0 0 - - - 0;
#X obj 579 73 metro 3000;
#X obj 579 120 sel 0;
#X obj 579 143 random 4;
#X obj 579 166 sel 0, f 19;
#X msg 579 189 1 500 \, 0 600 500;
#X obj 579 235 pow~ 2;
#X msg 709 189 1 4000 \, 0 5000 4000;
#X obj 579 97 random 6;
#X floatatom 654 119 5 0 0 0 - - - 0;
#X obj 500 123 del 6000;
#X floatatom 737 259 5 0 0 0 - - - 0;
#X obj 723 235 r flow3_amount_\$0;
#X obj 509 324 numbox~ 6 12 100 #C0C0C4 #440008 10 0 0 0;
#X obj 660 280 r flow3_amount_\$0;
#X obj 407 447 *~ 0.8;
#X connect 0 0 3 0;
#X connect 0 0 6 0;
#X connect 3 0 8 0;
#X connect 4 0 9 1;
#X connect 6 0 7 1;
#X connect 7 0 9 0;
#X connect 8 0 7 0;
#X connect 9 0 12 0;
#X connect 10 0 13 0;
#X connect 11 0 10 1;
#X connect 12 0 2 0;
#X connect 12 0 32 0;
#X connect 13 0 12 1;
#X connect 14 0 23 0;
#X connect 15 0 7 2;
#X connect 15 0 10 0;
#X connect 15 0 30 0;
#X connect 16 0 18 0;
#X connect 16 0 27 0;
#X connect 18 0 25 0;
#X connect 19 0 20 0;
#X connect 20 0 21 0;
#X connect 21 0 22 0;
#X connect 21 1 24 0;
#X connect 22 0 14 0;
#X connect 23 0 15 0;
#X connect 24 0 14 0;
#X connect 25 0 19 0;
#X connect 25 0 26 0;
#X connect 27 0 20 0;
#X connect 29 0 15 1;
#X connect 29 0 28 0;
#X connect 31 0 11 0;
#X connect 32 0 5 0;
#X restore 869 89 pd flow3;
#X obj 481 -12 s milimetragemChuva_\$0;
#X obj 669 -12 s quantidadeDeRaios_\$0;
#X text 442 -61 0 a 1;
#X text 837 -61 0 a 1;
#N canvas 0 28 1440 795 shock 1;
#X obj 164 356 outlet~;
#X obj 162 102 expr~ if($v1 > $v2 \, 1 \, -1);
#X obj 162 125 bob2~;
#X obj 162 148 *~ 0.5;
#X obj 245 -31 hsl 162 19 0.01 1 1 0 empty empty empty -2 -10 0 12 #fcfcfc #000000 #000000 0 1;
#X floatatom 653 53 5 0 0 0 - - - 0;
#X obj 162 79 osc~ 10;
#X obj 450 55 osc~ 0.2;
#X floatatom 652 -460 5 0 0 0 - - - 0;
#X obj 171 1 expr~ (1 - $v1) * 3 + 6;
#X obj 250 -114 FM01~;
#X floatatom 247 -137 5 0 0 0 - - - 0;
#X obj 171 -157 r lb_\$0;
#X msg 171 -133 0.2;
#X obj 440 -49 r quantidadeDeRaios_\$0;
#X obj 440 -25 * 30000;
#X obj 242 33 expr~ $v1 * $f2 + 100;
#X obj 440 -1 + 2000;
#X obj 281 -86 pow~ 6;
#X obj 450 78 expr~ (($v1 / 2) + 0.5) * 0.8;
#X connect 1 0 2 0;
#X connect 2 0 3 0;
#X connect 3 0 0 0;
#X connect 4 0 9 0;
#X connect 4 0 16 0;
#X connect 6 0 1 0;
#X connect 7 0 19 0;
#X connect 9 0 6 0;
#X connect 10 3 18 0;
#X connect 11 0 10 0;
#X connect 12 0 13 0;
#X connect 13 0 11 0;
#X connect 14 0 15 0;
#X connect 15 0 17 0;
#X connect 16 0 2 1;
#X connect 17 0 16 1;
#X connect 18 0 9 0;
#X connect 18 0 16 0;
#X connect 19 0 1 1;
#X restore 1024 89 pd shock;
#X obj 1025 182 *~;
#X obj 1043 112 tgl 19 1 empty empty empty 0 -10 0 12 #fcfcfc #000000 #000000 1 1;
#X msg 1043 136 \$1 100;
#X obj 1043 159 vline~;
#X obj 1025 205 throw~ mix_\$0;
#X obj 895 9 CPU;
#X connect 4 0 6 0;
#X connect 6 0 5 0;
#X connect 7 0 8 0;
#X connect 7 1 9 0;
#X connect 7 2 10 0;
#X connect 7 3 11 0;
#X connect 12 0 21 0;
#X connect 14 0 20 0;
#X connect 15 0 16 0;
#X connect 16 0 17 0;
#X connect 17 0 14 1;
#X connect 19 0 18 0;
#X connect 20 0 13 0;
#X connect 20 1 13 1;
#X connect 21 0 14 0;
#X connect 22 0 26 0;
#X connect 23 0 24 0;
#X connect 24 0 25 0;
#X connect 25 0 22 1;
#X connect 27 0 28 0;
#X connect 28 0 32 0;
#X connect 29 0 30 0;
#X connect 30 0 31 0;
#X connect 31 0 28 1;
#X connect 33 0 34 0;
#X connect 34 0 50 0;
#X connect 35 0 36 0;
#X connect 36 0 51 0;
#X connect 37 0 22 0;
#X connect 38 0 42 0;
#X connect 39 0 40 0;
#X connect 40 0 41 0;
#X connect 41 0 38 1;
#X connect 43 0 38 0;
#X connect 44 0 48 0;
#X connect 45 0 46 0;
#X connect 46 0 47 0;
#X connect 47 0 44 1;
#X connect 49 0 44 0;
#X connect 54 0 55 0;
#X connect 55 0 59 0;
#X connect 56 0 57 0;
#X connect 57 0 58 0;
#X connect 58 0 55 1;
#X coords 0 0 0.5 0.5 0 0 0;
