#N canvas 0 25 1440 805 12;
#X obj 137 58 inlet~;
#X obj 137 106 outlet~;
#X obj 267 58 inlet~;
#X obj 137 82 expr~ $v1 * 2 - $v2;
#X obj 267 12 loadbang;
#X msg 267 35 1;
#X connect 0 0 3 0;
#X connect 2 0 3 1;
#X connect 3 0 1 0;
#X connect 4 0 5 0;
#X connect 5 0 2 0;
