#N canvas 0 28 1440 872 12;
#X obj 20 19 inlet;
#X obj 20 42 s bng_\$0;
#X obj 20 152 r bng_\$0;
#X obj 20 175 f;
#X obj 101 19 inlet;
#X obj 196 19 inlet;
#X obj 101 42 s cont_\$0;
#X obj 196 42 s dir_\$0;
#X obj 89 106 r dir_\$0;
#X obj 20 244 s value_\$0;
#X obj 20 412 outlet;
#X obj 20 389 r value_\$0;
#N canvas 0 28 1440 900 anotações 0;
#X text 874 15 (Parágrafo sobre como pode ser interessante trabalhar com a ideia de um sistema fechado (pegando principalmente o conceito de suas limitações) \, dentro de um sistema construtivo (live coding).(Seção sobre como possibilidades infinitas geralmente não nos levam à nada \, e que é interessante fabricar limitações para expandir a expressão artística) \; \; (Parágrafo sobre improviso(vírgula) comentando sobre como ele é uma dessas limitações saudáveis \, pois retira o planejamento do pricesso criativo \, e força o peformer à prestar atenção no que já está soando \, e sentir o que a música "pede" (e então ele escolhe se à satisfaz ou não (parêntese virado para esquerda (como esse ->))(ponto final) \; \; (Par("a" com acento agudo)grafo sobre como é útil possuir ferramentas básicas (como o vline~) \, mas expandidas para acelerar e potencializar as possibilidades da função daquele objeto \, já que ((letra "j")(letra "u")(letra "s")(letra "t")(letra "i")(letra "c")(letra "a")(letra "t")(letra "i")(letra "v")(letra "a")) \; \; (Conclusão justificando a criação do objeto "vline01~" \, levando em conta como ele expande as possibilidades do "vline~") \; \; \; \; \; \; \;;
#X text 17 15 Só um contador simples \, pra não ficar aquela bagunça de [f] \, [+ 1] \, [%] \, etc.;
#X restore 612 20 pd anotações;
#X obj 612 43 loadbang;
#X obj 612 66 del 5;
#X obj 612 89 s lb_\$0;
#X obj 612 112 r lb_\$0;
#X obj 612 158 s cont_\$0;
#X obj 612 181 r lb_\$0;
#X obj 612 204 f \$2;
#X obj 612 135 f \$1;
#X obj 157 129 r cont_\$0;
#X obj 157 152 sel 0;
#X obj 157 175 1e+09;
#X obj 612 227 s dir_\$0;
#X obj 20 198 % 3.40282e+38, f 20;
#X obj 304 199 r cont_\$0;
#X obj 20 221 expr if($f1 < 0 \, $f2 - (($f1 * -1)) \, $f1);
#X obj 89 129 sel 0;
#X msg 89 152 1;
#X obj 50 175 +, f 6;
#X connect 0 0 1 0;
#X connect 2 0 3 0;
#X connect 3 0 25 0;
#X connect 3 0 30 0;
#X connect 4 0 6 0;
#X connect 5 0 7 0;
#X connect 8 0 28 0;
#X connect 11 0 10 0;
#X connect 13 0 14 0;
#X connect 14 0 15 0;
#X connect 16 0 20 0;
#X connect 18 0 19 0;
#X connect 19 0 24 0;
#X connect 20 0 17 0;
#X connect 21 0 22 0;
#X connect 22 0 23 0;
#X connect 22 1 23 0;
#X connect 23 0 25 1;
#X connect 25 0 27 0;
#X connect 26 0 27 1;
#X connect 27 0 9 0;
#X connect 28 0 29 0;
#X connect 29 0 30 1;
#X connect 30 0 3 1;
#X coords 0 0 0.5 0.5 0 0 0;
