#N canvas 0 28 1440 900 12;
#X obj 336 170 *~ 0.5;
#X floatatom 2393 -151 5 0 0 0 - - - 0;
#X obj 336 -44 inlet~;
#X floatatom 478 170 5 0 0 0 - - - 0;
#X obj 481 147 hsl 127 18 20 20000 1 0 empty empty empty -2 -8 0 10 #fcfcfc #000000 #000000 0 1;
#X obj 336 401 throw~ fb_\$0;
#X obj 336 124 catch~ fb_\$0;
#X obj 743 -44 inlet;
#X obj 493 -44 inlet;
#X obj 493 -21 s delay_\$0;
#X obj 336 308 r delay_\$0;
#X obj 743 4 s feedback_\$0;
#X obj 893 -44 inlet;
#X obj 893 4 s cuttof_\$0;
#X obj 375 147 r feedback_\$0;
#X obj 478 124 r cuttof_\$0;
#X floatatom 334 759 5 0 0 0 - - - 0;
#X floatatom 988 -356 5 0 0 0 - - - 0;
#X obj 230 269 throw~ out_\$0;
#X obj 336 493 catch~ out_\$0;
#X obj 336 516 outlet~;
#X text 454 -44 delay;
#X text 578 -44 intensidade de feedback;
#X text 847 -44 cuttof;
#X text 31 401 manda sinal com delay de volta para o delay;
#X obj 336 -20 throw~ clean_\$0;
#X text 255 -44 sinal limpo;
#X text 101 124 recebe de volta o sinal com delay;
#X text 23 269 manda sinal filtrado de delay;
#X obj 446 217 catch~ clean_\$0;
#X text 365 217 sinal limpo;
#X obj 572 516 outlet;
#X text 129 516 manda sinal filtrado de delay;
#X obj 336 377 delread4~ delay_\$0;
#X obj 336 269 delwrite~ delay_\$0 3000;
#X obj 1032 429 r cuttof_\$0;
#X obj 1032 516 outlet;
#X text 944 516 manda cutoff;
#X obj 841 516 outlet;
#X text 739 516 manda feedback;
#X text 491 516 manda delay;
#X floatatom 2548 -88 5 0 0 0 - - - 0;
#X obj 572 405 r delay_\$0;
#X obj 893 -20 clip 10 20000;
#X obj 841 492 r feedback_\$0;
#X obj 675 429 r spread;
#X obj 1082 452 r cuttofdiff;
#X floatatom 386 170 5 0 0 0 - - - 0;
#X floatatom 276 327 5 0 0 0 - - - 0;
#X obj 1082 475 t b f;
#X obj 572 493 *;
#X obj 1032 493 /;
#X obj 336 354 vline~;
#X msg 336 331 \$1 100;
#X obj 620 147 loadbang;
#X msg 620 170 0;
#X obj 446 240 *~ 0.1;
#X obj 743 -20 clip 0 1.01;
#X obj 336 193 bob~, f 41;
#X obj 740 405 r random;
#N canvas 0 28 1440 872 randomspread 1;
#X obj 49 130 random;
#X floatatom 49 199 5 0 0 0 - - - 0;
#X obj 49 153 / 100;
#X obj 88 107 * 100;
#X obj 88 84 expr if($f1 < 1 \, 1 - $f1 \, $f1 - 1);
#X obj 49 176 expr if($f2 < 1 \, $f1 + $f2 \, $f2 - $f1);
#X obj 49 11 inlet;
#X obj 88 61 r spread;
#X obj 312 153 r spread;
#X obj 49 221 outlet;
#X connect 0 0 2 0;
#X connect 1 0 9 0;
#X connect 2 0 5 0;
#X connect 3 0 0 1;
#X connect 4 0 3 0;
#X connect 5 0 1 0;
#X connect 6 0 0 0;
#X connect 7 0 4 0;
#X connect 8 0 5 1;
#X restore 740 428 pd randomspread;
#X obj 675 475 t b f;
#X connect 0 0 58 0;
#X connect 1 0 41 0;
#X connect 2 0 25 0;
#X connect 3 0 58 1;
#X connect 4 0 3 0;
#X connect 6 0 0 0;
#X connect 7 0 57 0;
#X connect 8 0 9 0;
#X connect 10 0 48 0;
#X connect 10 0 53 0;
#X connect 12 0 43 0;
#X connect 14 0 0 1;
#X connect 14 0 47 0;
#X connect 15 0 4 0;
#X connect 19 0 20 0;
#X connect 29 0 56 0;
#X connect 33 0 5 0;
#X connect 35 0 51 0;
#X connect 42 0 50 0;
#X connect 43 0 13 0;
#X connect 44 0 38 0;
#X connect 45 0 61 0;
#X connect 46 0 49 0;
#X connect 49 0 51 0;
#X connect 49 1 51 1;
#X connect 50 0 31 0;
#X connect 51 0 36 0;
#X connect 52 0 33 0;
#X connect 53 0 52 0;
#X connect 54 0 55 0;
#X connect 55 0 58 2;
#X connect 56 0 34 0;
#X connect 57 0 11 0;
#X connect 58 0 18 0;
#X connect 58 0 34 0;
#X connect 59 0 60 0;
#X connect 60 0 61 0;
#X connect 61 0 50 0;
#X connect 61 1 50 1;
