#N canvas 0 28 1440 872 12;
#X obj 20 148 *~;
#X obj 20 171 clip~ -1 1;
#X obj 20 217 bob~ 9999 0, f 25;
#X obj 20 20 inlet~;
#X obj 190 20 inlet~;
#X obj 20 43 throw~ interpretação_\$0;
#X obj 353 20 inlet~;
#X obj 20 240 throw~ visãoFinal_\$0;
#X obj 20 393 catch~ visãoFinal_\$0;
#X obj 20 416 outlet~;
#X obj 106 194 expr~ pow($v1 \, 2) * 20000;
#N canvas 0 53 1440 900 anotações 0;
#X text 17 15 Fazer esse bagulho tá sendo uma briza da porra... \; To viajando no que significa distorcer \, e de onde surgiu essa ideia humana de explorar seu significado nos fenômenos artísticos \, principalmente à partir do século XX. To pensando na ideia de que à partir da introdução da máquina no ambiente humano \, começamos a distorcer a realidade \, ou melhor \, as máquinas distorceram a realidade \, e nos tornaram seus escravos \, assim como o trigo fez à muito tempo. Então a arte foi influenciada \, cada vez mais à um lugar misto \, confuso \, e antinatural \, algo nunca experienciado antes \; \; Tudo isso não tem nenhum embasamento científico ou referência bibliográfica \, então é básicamente inútil em um ambiente acadêmico. Ou pelo menos é isso que parece.;
#X restore 556 20 pd anotações;
#X obj 556 43 loadbang;
#X obj 556 66 del 5;
#X obj 556 89 s lb_\$0;
#X obj 556 112 r lb_\$0;
#X obj 556 181 r lb_\$0;
#X obj 556 135 f \$1;
#X obj 556 204 f \$2;
#X obj 20 102 catch~ interpretação_\$0;
#X obj 190 43 throw~ distorção_\$0;
#X obj 353 43 throw~ clareza_\$0;
#X obj 556 158 throw~ distorção_\$0;
#X obj 556 227 throw~ clareza_\$0;
#X obj 38 125 catch~ distorção_\$0;
#X obj 106 148 catch~ clareza_\$0;
#X obj 106 171 clip~ 0 1;
#X connect 0 0 1 0;
#X connect 1 0 2 0;
#X connect 2 0 7 0;
#X connect 3 0 5 0;
#X connect 4 0 20 0;
#X connect 6 0 21 0;
#X connect 8 0 9 0;
#X connect 10 0 2 1;
#X connect 12 0 13 0;
#X connect 13 0 14 0;
#X connect 15 0 17 0;
#X connect 16 0 18 0;
#X connect 17 0 22 0;
#X connect 18 0 23 0;
#X connect 19 0 0 0;
#X connect 24 0 0 1;
#X connect 25 0 26 0;
#X connect 26 0 10 0;
#X coords 0 0 0.25 0.25 0 0 0;
