#N canvas 0 -28 1440 900 12;
#X obj 207 208 osc~;
#X obj 121 231 phaseMod01~, f 25;
#X obj 121 345 outlet~;
#X obj 121 23 inlet;
#X obj 121 46 s freq1_\$0;
#X obj 201 23 inlet;
#X obj 201 46 s freq2_\$0;
#X obj 281 23 inlet;
#X floatatom 551 -289 5 0 0 0 - - - 0;
#X obj 281 46 s freq3_\$0;
#X obj 361 23 inlet;
#X obj 361 46 s quantidade_\$0;
#X obj 293 207 expr~ ($v1 + 1) / 2 * (($v1 * $f2) + 0.5);
#X obj 574 28 unpack f f f f f;
#X obj 481 23 inlet;
#X obj 481 46 s brilho_\$0;
#X obj 137 276 r brilho_\$0;
#X obj 121 185 r freq1_\$0;
#X obj 121 208 osc~;
#X obj 207 185 r freq2_\$0;
#X obj 293 184 osc~;
#X obj 293 161 r freq3_\$0;
#X obj 545 161 r quantidade_\$0;
#X obj 545 184 t b f;
#X msg 574 5 10000 10001 0.09 1.91 3000;
#X obj 574 -18 r lb;
#X obj 121 299 bob2~;
#X obj 374 230 r quantidade_\$0;
#X obj 356 276 /~;
#X obj 374 253 * 1.5;
#X obj 121 322 *~, f 34;
#X obj 356 299 pow~ 0.5;
#X connect 0 0 1 1;
#X connect 1 0 26 0;
#X connect 3 0 4 0;
#X connect 5 0 6 0;
#X connect 7 0 9 0;
#X connect 10 0 11 0;
#X connect 12 0 1 2;
#X connect 12 0 28 0;
#X connect 13 0 4 0;
#X connect 13 1 6 0;
#X connect 13 2 9 0;
#X connect 13 3 11 0;
#X connect 13 4 15 0;
#X connect 14 0 15 0;
#X connect 16 0 26 1;
#X connect 17 0 18 0;
#X connect 18 0 1 0;
#X connect 19 0 0 0;
#X connect 20 0 12 0;
#X connect 21 0 20 0;
#X connect 22 0 23 0;
#X connect 23 0 12 0;
#X connect 23 1 12 1;
#X connect 24 0 13 0;
#X connect 25 0 24 0;
#X connect 26 0 30 0;
#X connect 27 0 29 0;
#X connect 28 0 31 0;
#X connect 29 0 28 1;
#X connect 30 0 2 0;
#X connect 31 0 30 1;
#X coords 0 -1 1 1 70 18 1 100 100;
