#N canvas 0 25 1440 847 12;
#X obj 90 75 expr~ if($v1 > 1 \, 2 - $v1 \, $v1);
#X obj 90 469 outlet~;
#X obj 90 26 inlet~;
#X obj 90 98 expr~ if($v1 < 0 \, $v1 * (-1) \, $v1);
#X obj 422 123 expr~ if($v1 > 1 \, 2 - $v1 \, $v1);
#X obj 422 146 expr~ if($v1 < -1 \, -2 - $v1 \, $v1);
#X obj 90 121 expr~ if($v1 > 1 \, 2 - $v1 \, $v1);
#X obj 90 144 expr~ if($v1 < 0 \, $v1 * (-1) \, $v1);
#X obj 90 167 expr~ if($v1 > 1 \, 2 - $v1 \, $v1);
#X obj 90 190 expr~ if($v1 < 0 \, $v1 * (-1) \, $v1);
#X obj 90 213 expr~ if($v1 > 1 \, 2 - $v1 \, $v1);
#X obj 90 236 expr~ if($v1 < 0 \, $v1 * (-1) \, $v1);
#X obj 90 259 expr~ if($v1 > 1 \, 2 - $v1 \, $v1);
#X obj 90 282 expr~ if($v1 < 0 \, $v1 * (-1) \, $v1);
#X obj 90 305 expr~ if($v1 > 1 \, 2 - $v1 \, $v1);
#X obj 90 328 expr~ if($v1 < 0 \, $v1 * (-1) \, $v1);
#X obj 90 351 expr~ if($v1 > 1 \, 2 - $v1 \, $v1);
#X obj 90 374 expr~ if($v1 < 0 \, $v1 * (-1) \, $v1);
#X obj 90 397 expr~ if($v1 > 1 \, 2 - $v1 \, $v1);
#X obj 90 420 expr~ if($v1 < 0 \, $v1 * (-1) \, $v1);
#X connect 0 0 3 0;
#X connect 2 0 0 0;
#X connect 3 0 6 0;
#X connect 4 0 5 0;
#X connect 6 0 7 0;
#X connect 7 0 8 0;
#X connect 8 0 9 0;
#X connect 9 0 10 0;
#X connect 10 0 11 0;
#X connect 11 0 12 0;
#X connect 12 0 13 0;
#X connect 13 0 14 0;
#X connect 14 0 15 0;
#X connect 15 0 16 0;
#X connect 16 0 17 0;
#X connect 17 0 18 0;
#X connect 18 0 19 0;
#X connect 19 0 1 0;
