#N canvas 0 28 1440 900 12;
#X declare -path gabrielDincao;
#X declare -path cyclone;
#X declare -path else;
#X obj 524 224 osc~;
#X obj 524 294 *~;
#X obj 524 386 outlet~;
#X obj 692 294 phasor~;
#X obj 692 363 *~;
#X obj 692 386 outlet~;
#X obj 855 271 osc~;
#X obj 855 363 *~;
#X obj 855 386 outlet~;
#X obj 1191 183 tgl 19 0 empty empty empty 0 -10 0 12 #fcfcfc #000000 #000000 0 1;
#X obj 1221 202 metro;
#X floatatom 2537 14 5 0 0 0 - - - 0;
#X floatatom 1418 890 5 0 0 0 - - - 0;
#X floatatom 49 888 5 0 0 0 - - - 0;
#X obj 1221 248 / 100;
#X obj 1221 271 pack, f 15;
#X msg 1221 294 \$1 \$2;
#X obj 1221 317 vline~;
#X obj 55 29 declare -path gabrielDincao;
#X obj 55 53 declare -path cyclone;
#X obj 55 77 declare -path else;
#X obj 1221 225 random 100;
#X obj 1221 363 *~;
#X obj 1221 386 outlet~;
#X text 492 388 seno;
#X text 632 388 sawtooth;
#X text 830 388 sqr;
#X text 1126 388 linear random;
#X obj 1398 267 sig~;
#X obj 1398 362 *~;
#X obj 1398 386 outlet~;
#X text 1317 388 step random;
#X obj 1221 97 loadbang;
#X obj 895 23 loadbang;
#X obj 534 105 inlet~;
#X obj 534 128 s~ freq_\$0;
#X obj 524 200 r~ freq_\$0;
#X obj 692 270 r~ freq_\$0;
#X obj 855 248 r~ freq_\$0;
#X obj 1323 97 r~ freq_\$0;
#X obj 619 128 s~ range_\$0;
#X obj 542 271 r~ range_\$0;
#X obj 710 340 r~ range_\$0;
#X obj 873 340 r~ range_\$0;
#X obj 1239 340 r~ range_\$0;
#X obj 1416 338 r~ range_\$0;
#X obj 619 105 inlet~;
#X obj 711 105 inlet~;
#X obj 711 128 s~ pw_\$0;
#X obj 1027 271 r~ pw_\$0;
#X obj 855 317 expr~ if($v1 > $v2 \, 1 \, 0);
#X obj 1323 184 snapshot~;
#X obj 1259 120 tgl 19 0 empty empty empty 0 -10 0 12 #fcfcfc #000000 #000000 0 1;
#X obj 1259 144 metro 10;
#X obj 524 248 expr~ ($v1 + 1) * 0.5;
#X obj 855 294 expr~ ($v1 + 1) * 0.5;
#X obj 1323 143 expr~ 1 / ($v1 / 1000);
#X obj 692 317 expr~ -1 * ($v1 - 1);
#X obj 1323 120 clip~ 0 55000;
#X obj 524 340 *~;
#X obj 542 317 r~ fold_\$0;
#X obj 584 340 r~ range_\$0;
#X obj 789 105 inlet~;
#X obj 789 128 s~ fold_\$0;
#X obj 895 46 del 5;
#X obj 895 87 f \$1;
#X obj 932 87 f \$2;
#X obj 969 87 f \$3;
#X text 436 53 * modificar o patch para que de pra colocar fold na escrita do objeto sem que zere o volume quando não indico inialmente;
#X obj 1006 87 f \$4;
#X obj 1006 110 + 1;
#X obj 524 363 gaiaFold~;
#X obj 1027 294 gaiaFold~;
#X connect 0 0 54 0;
#X connect 1 0 59 0;
#X connect 3 0 57 0;
#X connect 4 0 5 0;
#X connect 6 0 55 0;
#X connect 7 0 8 0;
#X connect 9 0 10 0;
#X connect 10 0 21 0;
#X connect 14 0 15 0;
#X connect 14 0 28 0;
#X connect 15 0 16 0;
#X connect 16 0 17 0;
#X connect 17 0 22 0;
#X connect 21 0 14 0;
#X connect 22 0 23 0;
#X connect 28 0 29 0;
#X connect 29 0 30 0;
#X connect 32 0 10 0;
#X connect 32 0 53 0;
#X connect 33 0 64 0;
#X connect 34 0 35 0;
#X connect 36 0 0 0;
#X connect 37 0 3 0;
#X connect 38 0 6 0;
#X connect 39 0 58 0;
#X connect 41 0 1 1;
#X connect 42 0 4 1;
#X connect 43 0 7 1;
#X connect 44 0 22 1;
#X connect 45 0 29 1;
#X connect 46 0 40 0;
#X connect 47 0 48 0;
#X connect 49 0 72 0;
#X connect 50 0 7 0;
#X connect 51 0 15 1;
#X connect 51 0 10 1;
#X connect 52 0 53 0;
#X connect 53 0 51 0;
#X connect 54 0 1 0;
#X connect 55 0 50 0;
#X connect 56 0 51 0;
#X connect 57 0 4 0;
#X connect 58 0 56 0;
#X connect 59 0 71 0;
#X connect 60 0 59 1;
#X connect 62 0 63 0;
#X connect 64 0 65 0;
#X connect 64 0 66 0;
#X connect 64 0 67 0;
#X connect 64 0 69 0;
#X connect 65 0 34 0;
#X connect 66 0 46 0;
#X connect 67 0 47 0;
#X connect 69 0 70 0;
#X connect 70 0 62 0;
#X connect 71 0 2 0;
#X connect 72 0 50 1;
#X coords 0 -1 1 1 60 15 1 100 100;
