#N canvas 0 32 1366 671 12;
#X declare -path else;
#X obj -122 262 s delaybase_\$0;
#X obj -9 262 s fbkbase_\$0;
#X obj 161 262 s cuttofbase_\$0;
#X obj 402 370 r fbkbase_\$0;
#X obj 537 370 r cuttofbase_\$0;
#X obj 90 262 s spread;
#X obj 281 262 s cuttofdiff;
#X obj 268 370 r delaybase_\$0;
#X obj 134 393 delrev, f 58;
#X obj 134 422 delrev, f 58;
#X obj 134 451 delrev, f 58;
#X obj 134 480 delrev, f 58;
#X obj 134 509 delrev, f 58;
#X obj 134 538 delrev, f 58;
#X obj 134 567 delrev, f 58;
#X obj 134 596 delrev, f 58;
#X obj 134 626 delrev, f 58;
#X obj 134 655 delrev, f 58;
#X obj 134 684 delrev, f 58;
#X obj 134 713 delrev, f 58;
#X obj 134 742 delrev, f 58;
#X obj 134 771 delrev, f 58;
#X obj 134 800 delrev, f 58;
#X obj 134 829 delrev, f 58;
#X obj 405 177 vsl 29 82 10 200 0 0 empty empty del 6 91 0 10 #3c50fc #000000 #000000 0 1;
#X obj 445 177 vsl 29 82 0.4 0.99 1 0 empty empty fb 6 91 0 10 #ff0400 #404040 #202020 0 1;
#X obj 525 177 vsl 29 82 100 10000 1 0 empty empty cuttof -2 91 0 10 #fce0e0 #404040 #000000 0 1;
#X floatatom 633 262 5 0 0 0 - - - 0;
#X floatatom 685 262 5 0 0 0 - - - 0;
#X floatatom 793 262 5 0 0 0 - - - 0;
#X obj 485 176 vsl 29 82 0.9 1.1 0 0 empty empty spread -4 91 0 10 #28f4f4 #404040 #2f004d 0 1;
#X floatatom 737 262 5 0 0 0 - - - 0;
#X obj 565 177 vsl 29 82 1.3 0.7 0 0 empty empty reflect -5 91 0 10 #f8d8fc #404040 #202020 0 1;
#X floatatom 849 262 5 0 0 0 - - - 0;
#X obj 409 276 hsl 184 29 0 1 0 0 mix_\$0 empty wet\ \ \ \ \ \ \ \ \ \ \ \ \ \ \ \ \ dry 2 14 0 13 #14e814 #404040 #000000 0 1;
#X obj -122 392 throw~ dry_\$0;
#X obj 130 1455 catch~ wetL_\$0;
#X obj 354 1457 catch~ wetR_\$0;
#X obj 246 1522 *~;
#X obj 130 1532 *~;
#X floatatom 125 2116 5 0 0 0 - - - 0;
#X floatatom -1388 308 5 0 0 0 - - - 0;
#X obj 148 1498 expr 1 - $f1;
#X obj 246 1574 outlet~;
#X obj 354 1574 outlet~;
#X obj 354 1524 *~;
#X obj 372 1500 expr 1 - $f1;
#X obj 246 1456 catch~ dry_\$0;
#X obj -114 1384 throw~ wetL_\$0;
#X obj 14 1384 throw~ wetR_\$0;
#X floatatom 1400 360 5 0 0 0 - - - 0;
#X obj 693 200 s option;
#X msg 693 170 1;
#X msg 727 170 2;
#X obj 486 155 bng 15 250 50 0 empty empty random\ spread 17 7 0 10 #00faff #000000 #000000;
#X obj 794 170 s random;
#X floatatom 1215 -711 5 0 0 0 - - - 0;
#X floatatom 1203 -71 5 0 0 0 - - - 0;
#X obj 693 80 loadbang;
#X obj 134 859 delrev, f 58;
#X obj 134 888 delrev, f 58;
#X obj 134 917 delrev, f 58;
#X obj 134 946 delrev, f 58;
#X obj 134 975 delrev, f 58;
#X obj 134 1004 delrev, f 58;
#X obj 134 1033 delrev, f 58;
#X obj 134 1062 delrev, f 58;
#X obj 134 1092 delrev, f 58;
#X obj 134 1121 delrev, f 58;
#X obj 134 1150 delrev, f 58;
#X obj 134 1179 delrev, f 58;
#X obj 134 1208 delrev, f 58;
#X obj 134 1237 delrev, f 58;
#X obj 134 1266 delrev, f 58;
#X obj 134 1295 delrev, f 58;
#X obj -114 1314 /~ 16;
#X obj 14 1314 /~ 16;
#X msg 618 156 1;
#X msg 405 99 40;
#X msg 445 99 0.9;
#X msg 485 99 1.1;
#X msg 525 99 5000;
#X msg 565 99 0.7;
#X msg 365 99 0.2;
#X obj -16 373 /~ 100;
#X obj -16 337 inlet~;
#X obj -114 1362 *~ 1600;
#X obj 14 1362 *~ 1600;
#X obj 264 1480 r mix_\$0;
#X msg 778 390 0.2 40 0.9 1.1 5000 0.7;
#X msg 778 415 mix tempo_delay feedback cutoff_inicial "reflexao"_proporcao_de_filtragem;
#N canvas 0 32 1366 671 presets 0;
#X msg 141 50 0.2 40 0.9 1.1 5000 0.7;
#X msg 141 75 mix tempo_delay feedback cutoff_inicial "reflexao"_proporcao_de_filtragem;
#X obj 570 229 text define presets_\$0;
#X msg 570 132 write presets_reverb03.txt;
#X msg 727 169 read presets_reverb03.txt;
#X obj 560 440 text get presets_\$0;
#X obj 602 338 loadbang;
#X listbox 560 464 103 0 0 0 - - - 0;
#X floatatom 547 366 5 0 0 0 - - - 0;
#X msg 602 362 -1;
#X msg 469 325 1;
#X msg 507 329 2;
#X obj 560 487 unpack f f f f f f;
#X obj 560 524 s;
#X connect 3 0 2 0;
#X connect 4 0 2 0;
#X connect 5 0 7 0;
#X connect 6 0 9 0;
#X connect 7 0 12 0;
#X connect 8 0 5 0;
#X connect 9 0 5 1;
#X restore 800 518 pd presets;
#X obj 485 75 r spr;
#X obj 405 75 r del;
#X obj 300 99 r mix;
#X obj 445 51 r fb;
#X obj 565 75 r reflect;
#X obj 525 51 r cuttof;
#X obj 406 310 s mix_\$0;
#X obj -378 -111 declare -path else;
#X obj 130 1556 clip~ -1 1;
#X obj 354 1548 clip~ -1 1;
#X obj -114 1338 clip~ -1 1;
#X obj 14 1338 clip~ -1 1;
#X connect 3 0 8 2;
#X connect 4 0 8 3;
#X connect 7 0 8 1;
#X connect 8 0 75 0;
#X connect 8 1 9 1;
#X connect 8 2 9 2;
#X connect 8 3 9 3;
#X connect 9 0 76 0;
#X connect 9 1 10 1;
#X connect 9 2 10 2;
#X connect 9 3 10 3;
#X connect 10 0 75 0;
#X connect 10 1 11 1;
#X connect 10 2 11 2;
#X connect 10 3 11 3;
#X connect 11 0 76 0;
#X connect 11 1 12 1;
#X connect 11 2 12 2;
#X connect 11 3 12 3;
#X connect 12 0 75 0;
#X connect 12 1 13 1;
#X connect 12 2 13 2;
#X connect 12 3 13 3;
#X connect 13 0 76 0;
#X connect 13 1 14 1;
#X connect 13 2 14 2;
#X connect 13 3 14 3;
#X connect 14 0 75 0;
#X connect 14 1 15 1;
#X connect 14 2 15 2;
#X connect 14 3 15 3;
#X connect 15 0 76 0;
#X connect 15 1 16 1;
#X connect 15 2 16 2;
#X connect 15 3 16 3;
#X connect 16 0 75 0;
#X connect 16 1 17 1;
#X connect 16 2 17 2;
#X connect 16 3 17 3;
#X connect 17 0 76 0;
#X connect 17 1 18 1;
#X connect 17 2 18 2;
#X connect 17 3 18 3;
#X connect 18 0 75 0;
#X connect 18 1 19 1;
#X connect 18 2 19 2;
#X connect 18 3 19 3;
#X connect 19 0 76 0;
#X connect 19 1 20 1;
#X connect 19 2 20 2;
#X connect 19 3 20 3;
#X connect 20 0 75 0;
#X connect 20 1 21 1;
#X connect 20 2 21 2;
#X connect 20 3 21 3;
#X connect 21 0 76 0;
#X connect 21 1 22 1;
#X connect 21 2 22 2;
#X connect 21 3 22 3;
#X connect 22 0 75 0;
#X connect 22 1 23 1;
#X connect 22 2 23 2;
#X connect 22 3 23 3;
#X connect 23 0 76 0;
#X connect 23 1 59 1;
#X connect 23 2 59 2;
#X connect 23 3 59 3;
#X connect 24 0 0 0;
#X connect 24 0 27 0;
#X connect 25 0 1 0;
#X connect 25 0 28 0;
#X connect 26 0 29 0;
#X connect 26 0 2 0;
#X connect 30 0 31 0;
#X connect 30 0 5 0;
#X connect 30 0 52 0;
#X connect 32 0 33 0;
#X connect 32 0 6 0;
#X connect 34 0 98 0;
#X connect 36 0 39 0;
#X connect 37 0 45 0;
#X connect 38 0 43 0;
#X connect 38 0 44 0;
#X connect 39 0 100 0;
#X connect 42 0 39 1;
#X connect 45 0 101 0;
#X connect 46 0 45 1;
#X connect 47 0 38 0;
#X connect 52 0 51 0;
#X connect 53 0 51 0;
#X connect 54 0 53 0;
#X connect 54 0 55 0;
#X connect 56 0 57 0;
#X connect 58 0 52 0;
#X connect 58 0 81 0;
#X connect 58 0 80 0;
#X connect 58 0 79 0;
#X connect 58 0 78 0;
#X connect 58 0 83 0;
#X connect 58 0 82 0;
#X connect 59 0 75 0;
#X connect 59 1 60 1;
#X connect 59 2 60 2;
#X connect 59 3 60 3;
#X connect 60 0 76 0;
#X connect 60 1 61 1;
#X connect 60 2 61 2;
#X connect 60 3 61 3;
#X connect 61 0 75 0;
#X connect 61 1 62 1;
#X connect 61 2 62 2;
#X connect 61 3 62 3;
#X connect 62 0 76 0;
#X connect 62 1 63 1;
#X connect 62 2 63 2;
#X connect 62 3 63 3;
#X connect 63 0 75 0;
#X connect 63 1 64 1;
#X connect 63 2 64 2;
#X connect 63 3 64 3;
#X connect 64 0 76 0;
#X connect 64 1 65 1;
#X connect 64 2 65 2;
#X connect 64 3 65 3;
#X connect 65 0 75 0;
#X connect 65 1 66 1;
#X connect 65 2 66 2;
#X connect 65 3 66 3;
#X connect 66 0 76 0;
#X connect 66 1 67 1;
#X connect 66 2 67 2;
#X connect 66 3 67 3;
#X connect 67 0 75 0;
#X connect 67 1 68 1;
#X connect 67 2 68 2;
#X connect 67 3 68 3;
#X connect 68 0 76 0;
#X connect 68 1 69 1;
#X connect 68 2 69 2;
#X connect 68 3 69 3;
#X connect 69 0 75 0;
#X connect 69 1 70 1;
#X connect 69 2 70 2;
#X connect 69 3 70 3;
#X connect 70 0 76 0;
#X connect 70 1 71 1;
#X connect 70 2 71 2;
#X connect 70 3 71 3;
#X connect 71 0 75 0;
#X connect 71 1 72 1;
#X connect 71 2 72 2;
#X connect 71 3 72 3;
#X connect 72 0 76 0;
#X connect 72 1 73 1;
#X connect 72 2 73 2;
#X connect 72 3 73 3;
#X connect 73 0 75 0;
#X connect 73 1 74 1;
#X connect 73 2 74 2;
#X connect 73 3 74 3;
#X connect 74 0 76 0;
#X connect 75 0 102 0;
#X connect 76 0 103 0;
#X connect 77 0 32 0;
#X connect 78 0 24 0;
#X connect 79 0 25 0;
#X connect 80 0 30 0;
#X connect 81 0 26 0;
#X connect 82 0 32 0;
#X connect 83 0 34 0;
#X connect 84 0 12 0;
#X connect 84 0 8 0;
#X connect 84 0 17 0;
#X connect 84 0 9 0;
#X connect 84 0 11 0;
#X connect 84 0 23 0;
#X connect 84 0 22 0;
#X connect 84 0 21 0;
#X connect 84 0 20 0;
#X connect 84 0 19 0;
#X connect 84 0 18 0;
#X connect 84 0 16 0;
#X connect 84 0 15 0;
#X connect 84 0 14 0;
#X connect 84 0 13 0;
#X connect 84 0 10 0;
#X connect 84 0 59 0;
#X connect 84 0 74 0;
#X connect 84 0 73 0;
#X connect 84 0 72 0;
#X connect 84 0 71 0;
#X connect 84 0 70 0;
#X connect 84 0 69 0;
#X connect 84 0 68 0;
#X connect 84 0 67 0;
#X connect 84 0 66 0;
#X connect 84 0 65 0;
#X connect 84 0 64 0;
#X connect 84 0 63 0;
#X connect 84 0 62 0;
#X connect 84 0 61 0;
#X connect 84 0 60 0;
#X connect 85 0 84 0;
#X connect 85 0 35 0;
#X connect 86 0 48 0;
#X connect 87 0 49 0;
#X connect 88 0 38 1;
#X connect 88 0 42 0;
#X connect 88 0 46 0;
#X connect 92 0 30 0;
#X connect 93 0 24 0;
#X connect 94 0 34 0;
#X connect 95 0 25 0;
#X connect 96 0 32 0;
#X connect 97 0 26 0;
#X connect 100 0 43 0;
#X connect 101 0 44 0;
#X connect 102 0 86 0;
#X connect 103 0 87 0;
#X coords 0 -1 1 1 202 160 1 400 150;
