#N canvas 0 28 1440 872 12;
#X obj 75 116 inlet~;
#X obj 75 163 dac~, f 19;
#X obj 205 116 inlet~;
#X obj 75 140 clip~ -1 1;
#X obj 205 140 clip~ -1 1;
#X connect 0 0 3 0;
#X connect 2 0 4 0;
#X connect 3 0 1 0;
#X connect 4 0 1 1;
#X coords 0 0 0.5 0.5 0 0 0;
