#N canvas 0 28 1440 872 12;
#X obj 20 412 outlet~;
#X obj 20 320 pow~ 2;
#N canvas 0 28 1440 900 anotações 0;
#X text 17 15 vline01~ \; \; Descrição: Gerador de linhas que conectam três pontos (inicial \, p1 \, p2) de maneira constante \; \; Por que não usar vline~ (vanila)? \; Em ambientes performáticos \, principalmente de live coding \, percebi que há um atraso \; \; \; Acho interessante - em performances de live coding - que eu tenha disponível ferramentas úteis e performáveis \; \; \; O que é live coding? \; \; Fazer ferramentas facilitadoras e aceleradoras invalida o live coding? \; \; Qual a diferença conceitual de usar apenas objetos do valina \, e usar meus objetos? \; \; Se eu criar um objeto que performa todas as funções de síntese que preciso \, e usar ele em live coding \, estarei invalidando minha performance? \; \; \; É foda essa porra \, porque não existe forma pura de live coding... Mesmo que você desenvolva sua própria engine de síntese \, e use apenas coisas criadas em tempo real \, você ainda estará usando objetos que performam funções pre concebidas \, da linguagem de programação sendo utilizada \;;
#X text 442 15 Se construir um computador \, partindo do nada \, programar o sistema operacional \, e todo o processo de síntese \, mesmo assim \, você ainda estará usando objetos físicos \, pre concebidos por uma fábrica \, e uma linguagem textual milenar \, que possuem suas próprias funções \; \; E mesmo que colete todos os materiais para a construção desse computador de forma independente \, e de alguma forma \, o programe sem o uso de uma linguagem e gere sons dessa forma \, ainda assim \, você estará utilizando objetos preconcebidos \, que performam funções dentro de uma linguagem: As moléculas na linguagem da física \; \; A única criação real é o universo. Tudo que surgiu após o momento 0 \, é interpretação. Por isso \, não há sentido em se preocupar com esse purismo \, já que a premissa na qual ele se baseia é falsa \; \; É valido \, porém \, usar ferramentas que performam poucas funções \, em oposição à um sistema fechado. Não por um simples critério de valor falso \, mas sim pelo amplo potencial de criação permitido por esse tipo de processo construtivo \; \; \; (analogia com esculturas \, abordando a ideia: simplicidade do material permite mais liberdade artística \, e montagens com diferentes materiais restringem as possibilidades (explorar que muitas vezes essa restrição aguça a criatividade (comentar sobre o diálogo dos dois seres (humano e sistema fechado)))) \; \;;
#X text 874 15 (Parágrafo sobre como pode ser interessante trabalhar com a ideia de um sistema fechado (pegando principalmente o conceito de suas limitações) \, dentro de um sistema construtivo (live coding).(Seção sobre como possibilidades infinitas geralmente não nos levam à nada \, e que é interessante fabricar limitações para expandir a expressão artística) \; \; (Parágrafo sobre improviso(vírgula) comentando sobre como ele é uma dessas limitações saudáveis \, pois retira o planejamento do pricesso criativo \, e força o peformer à prestar atenção no que já está soando \, e sentir o que a música "pede" (e então ele escolhe se à satisfaz ou não (parêntese virado para esquerda (como esse ->))(ponto final) \; \; (Par("a" com acento agudo)grafo sobre como é útil possuir ferramentas básicas (como o vline~) \, mas expandidas para acelerar e potencializar as possibilidades da função daquele objeto \, já que ((letra "j")(letra "u")(letra "s")(letra "t")(letra "i")(letra "c")(letra "a")(letra "t")(letra "i")(letra "v")(letra "a")) \; \; (Conclusão justificando a criação do objeto "vline01~" \, levando em conta como ele expande as possibilidades do "vline~") \; \; \; \; \; \; \;;
#X restore 612 20 pd anotações;
#X obj 612 43 loadbang;
#X obj 612 66 del 5;
#X obj 612 89 s lb_\$0;
#X obj 20 366 s~ env_\$0;
#X obj 20 389 r~ env_\$0;
#X obj 612 276 f \$1;
#X obj 612 253 r lb_\$0;
#X obj 612 112 r lb_\$0;
#X obj 612 135 f \$2;
#X obj 612 325 r lb_\$0;
#X obj 612 184 r lb_\$0;
#X obj 612 348 f \$3;
#X obj 612 207 f \$4;
#X obj 612 299 s p1_\$0;
#X obj 612 158 s t1_\$0;
#X obj 612 371 s p2_\$0;
#X obj 612 230 s t2_\$0;
#X obj 88 297 r~ p1_\$0;
#X obj 20 20 inlet;
#X obj 101 20 inlet~;
#X obj 263 20 inlet~;
#X obj 344 20 inlet~;
#X obj 263 43 s~ p2_\$0;
#X obj 344 43 s~ t2_\$0;
#X obj 274 297 r p1_\$0;
#X obj 360 297 r~ p2_\$0;
#X obj 546 297 r p2_\$0;
#X obj 88 320 expr~ if($v1 > 0 \, $v1 \, $f2);
#X obj 360 320 expr~ if($v1 > 0 \, $v1 \, $f2);
#X obj 20 343 expr~ $v1 * ($v2 - $v6) + $v6 + ($f4 * $f5 * $v3);
#X obj 101 43 s~ p1_\$0;
#X obj 182 20 inlet~;
#X obj 182 43 s~ t1_\$0;
#X obj 20 43 s tg_\$0;
#X obj 269 228 f01~;
#X obj 20 297 vline~;
#X obj 269 182 r~ t2_\$0;
#X obj 455 182 r t2_\$0;
#X obj 269 205 expr~ if($v1 > 0 \, $v1 \, $f2);
#X obj 20 228 f01~;
#X obj 20 182 r~ t1_\$0;
#X obj 20 205 expr~ if($v1 > 0 \, $v1 \, $f2);
#X obj 206 182 r t1_\$0;
#X obj 513 187 r tg_\$0;
#X msg 20 274 1 \$1 \, 0 \$2 \$1;
#X obj 20 251 pack f f, f 36;
#X obj 309 269 outlet;
#X obj 513 210 t b b;
#X connect 1 0 32 0;
#X connect 3 0 4 0;
#X connect 4 0 5 0;
#X connect 7 0 0 0;
#X connect 8 0 16 0;
#X connect 9 0 8 0;
#X connect 10 0 11 0;
#X connect 11 0 17 0;
#X connect 12 0 14 0;
#X connect 13 0 15 0;
#X connect 14 0 18 0;
#X connect 15 0 19 0;
#X connect 20 0 30 0;
#X connect 21 0 36 0;
#X connect 22 0 33 0;
#X connect 23 0 25 0;
#X connect 24 0 26 0;
#X connect 27 0 30 1;
#X connect 28 0 31 0;
#X connect 29 0 31 1;
#X connect 30 0 32 1;
#X connect 31 0 32 5;
#X connect 32 0 6 0;
#X connect 34 0 35 0;
#X connect 37 0 48 1;
#X connect 38 0 1 0;
#X connect 39 0 41 0;
#X connect 40 0 41 1;
#X connect 41 0 37 0;
#X connect 42 0 48 0;
#X connect 43 0 44 0;
#X connect 44 0 42 0;
#X connect 45 0 44 1;
#X connect 46 0 50 0;
#X connect 47 0 38 0;
#X connect 48 0 47 0;
#X connect 48 0 49 0;
#X connect 50 0 42 2;
#X connect 50 1 37 2;
